<svg width="20" height="20" viewBox="0 0 20 20" fill="none" xmlns="http://www.w3.org/2000/svg">
<mask id="path-1-inside-1_730_1109" fill="white">
<path d="M0 18H20V20H0V18Z"/>
<path d="M9 0H11V15H9V0Z"/>
<path d="M3 10.4141L4.41421 8.99985L11.4853 16.0709L10.0711 17.4851L3 10.4141Z"/>
<path d="M15.728 9L17.1422 10.4142L10.0711 17.4851L8.65696 16.0711L15.728 9Z"/>
</mask>
<path d="M0 18H20V20H0V18Z" fill="#F1F5F8"/>
<path d="M9 0H11V15H9V0Z" fill="#F1F5F8"/>
<path d="M3 10.4141L4.41421 8.99985L11.4853 16.0709L10.0711 17.4851L3 10.4141Z" fill="#F1F5F8"/>
<path d="M15.728 9L17.1422 10.4142L10.0711 17.4851L8.65696 16.0711L15.728 9Z" fill="#F1F5F8"/>
<path d="M0 18V16H-2V18H0ZM20 18H22V16H20V18ZM20 20V22H22V20H20ZM0 20H-2V22H0V20ZM9 0V-2H7V0H9ZM11 0H13V-2H11V0ZM11 15V17H13V15H11ZM9 15H7V17H9V15ZM3 10.4141L1.58579 8.99985L0.171573 10.4141L1.58579 11.8283L3 10.4141ZM4.41421 8.99985L5.82843 7.58564L4.41421 6.17142L3 7.58564L4.41421 8.99985ZM11.4853 16.0709L12.8995 17.4851L14.3137 16.0709L12.8995 14.6567L11.4853 16.0709ZM10.0711 17.4851L8.65688 18.8994L10.0711 20.3135L11.4853 18.8994L10.0711 17.4851ZM15.728 9L17.1422 7.58579L15.728 6.17157L14.3138 7.58579L15.728 9ZM17.1422 10.4142L18.5564 11.8285L19.9707 10.4142L18.5565 9L17.1422 10.4142ZM8.65696 16.0711L7.24275 14.6569L5.82851 16.0711L7.24277 17.4853L8.65696 16.0711ZM0 20H20V16H0V20ZM18 18V20H22V18H18ZM20 18H0V22H20V18ZM2 20V18H-2V20H2ZM9 2H11V-2H9V2ZM9 0V15H13V0H9ZM11 13H9V17H11V13ZM11 15V0H7V15H11ZM4.41421 11.8283L5.82843 10.4141L3 7.58564L1.58579 8.99985L4.41421 11.8283ZM3 10.4141L10.0711 17.4851L12.8995 14.6567L5.82843 7.58564L3 10.4141ZM10.0711 14.6567L8.65685 16.0709L11.4853 18.8993L12.8995 17.4851L10.0711 14.6567ZM11.4853 16.0709L4.41421 8.99985L1.58579 11.8283L8.65685 18.8993L11.4853 16.0709ZM14.3138 10.4142L15.728 11.8284L18.5565 9L17.1422 7.58579L14.3138 10.4142ZM15.7281 8.99998L8.65688 16.0709L11.4853 18.8994L18.5564 11.8285L15.7281 8.99998ZM11.4853 16.0709L10.0711 14.6568L7.24277 17.4853L8.65688 18.8994L11.4853 16.0709ZM10.0712 17.4853L17.1422 10.4142L14.3138 7.58579L7.24275 14.6569L10.0712 17.4853Z" fill="#B8884B" mask="url(#path-1-inside-1_730_1109)"/>
</svg>
