<svg width="18" height="22" viewBox="0 0 18 22" fill="none" xmlns="http://www.w3.org/2000/svg">
<path d="M18 22H0V0H18V22ZM2 20H16V2H2V20Z" fill="#01305E"/>
<path d="M14 4H4V6H14V4Z" fill="#01305E"/>
<path d="M6 8H4V10H6V8Z" fill="#01305E"/>
<path d="M6 12H4V14H6V12Z" fill="#01305E"/>
<path d="M6 16H4V18H6V16Z" fill="#01305E"/>
<path d="M10 8H8V10H10V8Z" fill="#01305E"/>
<path d="M10 12H8V14H10V12Z" fill="#01305E"/>
<path d="M10 16H8V18H10V16Z" fill="#01305E"/>
<path d="M14 8H12V10H14V8Z" fill="#01305E"/>
<path d="M14 12H12V18H14V12Z" fill="#01305E"/>
</svg>
