<svg width="17" height="21" viewBox="0 0 17 21" fill="none" xmlns="http://www.w3.org/2000/svg">
<path d="M17 20.9102H0L0 0.910156L17 0.910156V20.9102ZM1.7 19.2435H15.3L15.3 2.57682L1.7 2.57682L1.7 19.2435Z" fill="#B8884B"/>
<path d="M12.75 5.07682L4.25 5.07682V6.74349L12.75 6.74349V5.07682Z" fill="#B8884B"/>
<path d="M5.95 8.41016H4.25L4.25 10.0768H5.95L5.95 8.41016Z" fill="#B8884B"/>
<path d="M5.95 11.7435H4.25V13.4102H5.95V11.7435Z" fill="#B8884B"/>
<path d="M5.95 15.0768H4.25V16.7435H5.95V15.0768Z" fill="#B8884B"/>
<path d="M9.35 8.41016H7.65L7.65 10.0768H9.35V8.41016Z" fill="#B8884B"/>
<path d="M9.35 11.7435H7.65V13.4102H9.35V11.7435Z" fill="#B8884B"/>
<path d="M9.35 15.0768H7.65V16.7435H9.35V15.0768Z" fill="#B8884B"/>
<path d="M12.75 8.41016H11.05V10.0768H12.75V8.41016Z" fill="#B8884B"/>
<path d="M12.75 11.7435H11.05V16.7435H12.75V11.7435Z" fill="#B8884B"/>
</svg>
