<svg width="12" height="10" viewBox="0 0 12 10" fill="none" xmlns="http://www.w3.org/2000/svg">
<mask id="path-1-inside-1_733_10" fill="white">
<path d="M0 4.65382L1.33346 3.26921L6.00057 8.11536L4.66711 9.49997L0 4.65382Z"/>
<path d="M10.6665 0.5L12 1.88462L4.66597 9.5L3.33251 8.11538L10.6665 0.5Z"/>
</mask>
<path d="M0 4.65382L1.33346 3.26921L6.00057 8.11536L4.66711 9.49997L0 4.65382Z" fill="#B8884B"/>
<path d="M10.6665 0.5L12 1.88462L4.66597 9.5L3.33251 8.11538L10.6665 0.5Z" fill="#B8884B"/>
<path d="M0 4.65382L-1.44057 3.26647L-2.77667 4.65382L-1.44057 6.04117L0 4.65382ZM1.33346 3.26921L2.77403 1.88185L1.33346 0.386014L-0.107115 1.88185L1.33346 3.26921ZM6.00057 8.11536L7.44114 9.50271L8.77724 8.11536L7.44114 6.72801L6.00057 8.11536ZM4.66711 9.49997L3.22653 10.8873L4.66711 12.3832L6.10768 10.8873L4.66711 9.49997ZM10.6665 0.5L12.1071 -0.887352L10.6665 -2.38319L9.22596 -0.887352L10.6665 0.5ZM12 1.88462L13.4406 3.27197L14.7767 1.88462L13.4406 0.497264L12 1.88462ZM4.66597 9.5L3.2254 10.8874L4.66597 12.3832L6.10654 10.8874L4.66597 9.5ZM3.33251 8.11538L1.89194 6.72803L0.555841 8.11538L1.89194 9.50274L3.33251 8.11538ZM1.44057 6.04117L2.77403 4.65656L-0.107115 1.88185L-1.44057 3.26647L1.44057 6.04117ZM-0.107115 4.65656L4.55999 9.50271L7.44114 6.72801L2.77403 1.88185L-0.107115 4.65656ZM4.55999 6.72801L3.22653 8.11262L6.10768 10.8873L7.44114 9.50271L4.55999 6.72801ZM6.10768 8.11262L1.44057 3.26647L-1.44057 6.04117L3.22653 10.8873L6.10768 8.11262ZM9.22596 1.88735L10.5594 3.27197L13.4406 0.497264L12.1071 -0.887352L9.22596 1.88735ZM10.5594 0.497264L3.2254 8.11265L6.10654 10.8874L13.4406 3.27197L10.5594 0.497264ZM6.10655 8.11265L4.77309 6.72803L1.89194 9.50274L3.2254 10.8874L6.10655 8.11265ZM4.77308 9.50274L12.1071 1.88735L9.22596 -0.887352L1.89194 6.72803L4.77308 9.50274Z" fill="#B8884B" mask="url(#path-1-inside-1_733_10)"/>
</svg>
