<svg width="60" height="60" viewBox="0 0 60 60" fill="none" xmlns="http://www.w3.org/2000/svg">
<path d="M51.2133 38.7867C47.9457 35.5193 44.0565 33.1004 39.8132 31.6362C44.3579 28.506 47.3438 23.2673 47.3438 17.3438C47.3438 7.78043 39.5633 0 30 0C20.4367 0 12.6562 7.78043 12.6562 17.3438C12.6562 23.2673 15.6421 28.506 20.187 31.6362C15.9436 33.1004 12.0544 35.5193 8.78684 38.7867C3.12059 44.4531 0 51.9867 0 60H4.6875C4.6875 46.0426 16.0426 34.6875 30 34.6875C43.9574 34.6875 55.3125 46.0426 55.3125 60H60C60 51.9867 56.8794 44.4531 51.2133 38.7867ZM30 30C23.0214 30 17.3438 24.3225 17.3438 17.3438C17.3438 10.365 23.0214 4.6875 30 4.6875C36.9786 4.6875 42.6562 10.365 42.6562 17.3438C42.6562 24.3225 36.9786 30 30 30Z" fill="#252D35"/>
</svg>
