<svg width="55" height="41" viewBox="0 0 55 41" fill="none" xmlns="http://www.w3.org/2000/svg">
<path d="M36 1.71429V24H18V1.71429H21.6V3.42857H19.8V22.2857H34.2V3.42857H27V1.71429H36Z" fill="#F1F5F8"/>
<path d="M27 0V9.42857H21.6V5.14286H23.4V7.71429H25.2V1.71429H23.4V3.42857H21.6V0H27Z" fill="#F1F5F8"/>
<path d="M7.14 28.6V35.68H8.04V38.608H6.66V37H1.56V38.608H0.18V35.68H0.96C1.448 35.048 1.692 34.084 1.692 32.788V28.6H7.14ZM2.472 35.68H5.76V29.896H3.072V32.812C3.072 34.06 2.872 35.016 2.472 35.68ZM14 36.244C13.392 36.852 12.644 37.156 11.756 37.156C10.868 37.156 10.12 36.852 9.51197 36.244C8.89597 35.628 8.58797 34.88 8.58797 34C8.58797 33.12 8.89597 32.372 9.51197 31.756C10.12 31.148 10.868 30.844 11.756 30.844C12.644 30.844 13.392 31.148 14 31.756C14.616 32.372 14.924 33.12 14.924 34C14.924 34.88 14.616 35.628 14 36.244ZM9.88397 34C9.88397 34.544 10.064 34.996 10.424 35.356C10.784 35.716 11.228 35.896 11.756 35.896C12.284 35.896 12.728 35.716 13.088 35.356C13.448 34.996 13.628 34.544 13.628 34C13.628 33.456 13.448 33.004 13.088 32.644C12.728 32.284 12.284 32.104 11.756 32.104C11.228 32.104 10.784 32.284 10.424 32.644C10.064 33.004 9.88397 33.456 9.88397 34ZM18.6638 33.94L21.3998 37H19.8518L17.3918 34.228V37H16.0958V31H17.3918V33.652L19.7198 31H21.3038L18.6638 33.94ZM24.6624 35.368L26.1984 31H27.5784L25.2744 37.192C24.9944 37.952 24.6024 38.52 24.0984 38.896C23.5944 39.272 23.0104 39.44 22.3464 39.4V38.188C23.1144 38.236 23.6464 37.852 23.9424 37.036L23.9784 36.952L21.4584 31H22.8384L24.6624 35.368ZM33.1888 31H34.5088V37H33.2488V33.052L31.5208 35.8H31.3648L29.6488 33.064V37H28.3888V31H29.7088L31.4488 33.772L33.1888 31ZM41.802 34.552H37.026C37.122 35 37.338 35.348 37.674 35.596C38.018 35.844 38.442 35.968 38.946 35.968C39.626 35.968 40.142 35.72 40.494 35.224L41.562 35.848C40.978 36.72 40.102 37.156 38.934 37.156C37.966 37.156 37.178 36.86 36.57 36.268C35.97 35.668 35.67 34.912 35.67 34C35.67 33.112 35.966 32.364 36.558 31.756C37.142 31.148 37.902 30.844 38.838 30.844C39.71 30.844 40.43 31.152 40.998 31.768C41.566 32.384 41.85 33.132 41.85 34.012C41.85 34.172 41.834 34.352 41.802 34.552ZM37.014 33.496H40.542C40.454 33.024 40.254 32.66 39.942 32.404C39.638 32.148 39.266 32.02 38.826 32.02C38.346 32.02 37.946 32.152 37.626 32.416C37.306 32.68 37.102 33.04 37.014 33.496ZM47.0344 33.388V31H48.3304V37H47.0344V34.612H44.2864V37H42.9904V31H44.2864V33.388H47.0344ZM49.1981 31H54.4181V32.248H52.4621V37H51.1661V32.248H49.1981V31Z" fill="#F1F5F8"/>
</svg>
