<svg width="12" height="12" viewBox="0 0 12 12" fill="none" xmlns="http://www.w3.org/2000/svg">
<mask id="path-1-inside-1_971_3661" fill="white">
<path d="M0 10.8H12V12H0V10.8Z"/>
<path d="M5.4 0H6.6V9H5.4V0Z"/>
<path d="M1.8 6.24844L2.64853 5.39991L6.89117 9.64255L6.04264 10.4911L1.8 6.24844Z"/>
<path d="M9.43682 5.4L10.2853 6.24853L6.04264 10.4911L5.19418 9.64264L9.43682 5.4Z"/>
</mask>
<path d="M0 10.8H12V12H0V10.8Z" fill="#252D35"/>
<path d="M5.4 0H6.6V9H5.4V0Z" fill="#252D35"/>
<path d="M1.8 6.24844L2.64853 5.39991L6.89117 9.64255L6.04264 10.4911L1.8 6.24844Z" fill="#252D35"/>
<path d="M9.43682 5.4L10.2853 6.24853L6.04264 10.4911L5.19418 9.64264L9.43682 5.4Z" fill="#252D35"/>
<path d="M0 10.8V8.8H-2V10.8H0ZM12 10.8H14V8.8H12V10.8ZM12 12V14H14V12H12ZM0 12H-2V14H0V12ZM5.4 0V-2H3.4V0H5.4ZM6.6 0H8.6V-2H6.6V0ZM6.6 9V11H8.6V9H6.6ZM5.4 9H3.4V11H5.4V9ZM1.8 6.24844L0.385787 4.83422L-1.02843 6.24844L0.385787 7.66265L1.8 6.24844ZM2.64853 5.39991L4.06274 3.9857L2.64853 2.57148L1.23431 3.9857L2.64853 5.39991ZM6.89117 9.64255L8.30538 11.0568L9.7196 9.64255L8.30538 8.22834L6.89117 9.64255ZM6.04264 10.4911L4.62845 11.9053L6.04264 13.3195L7.45683 11.9053L6.04264 10.4911ZM9.43682 5.4L10.851 3.98579L9.43682 2.57157L8.0226 3.98579L9.43682 5.4ZM10.2853 6.24853L11.6995 7.66277L13.1138 6.24855L11.6996 4.83432L10.2853 6.24853ZM5.19418 9.64264L3.77996 8.22843L2.36573 9.64266L3.77999 11.0569L5.19418 9.64264ZM0 12.8H12V8.8H0V12.8ZM10 10.8V12H14V10.8H10ZM12 10H0V14H12V10ZM2 12V10.8H-2V12H2ZM5.4 2H6.6V-2H5.4V2ZM4.6 0V9H8.6V0H4.6ZM6.6 7H5.4V11H6.6V7ZM7.4 9V0H3.4V9H7.4ZM3.21421 7.66265L4.06274 6.81412L1.23431 3.9857L0.385787 4.83422L3.21421 7.66265ZM1.23431 6.81412L5.47696 11.0568L8.30538 8.22834L4.06274 3.9857L1.23431 6.81412ZM5.47696 8.22834L4.62843 9.07687L7.45685 11.9053L8.30538 11.0568L5.47696 8.22834ZM7.45685 9.07687L3.21421 4.83422L0.385787 7.66265L4.62843 11.9053L7.45685 9.07687ZM8.0226 6.81421L8.87113 7.66274L11.6996 4.83432L10.851 3.98579L8.0226 6.81421ZM8.87116 4.83429L4.62845 9.07684L7.45683 11.9053L11.6995 7.66277L8.87116 4.83429ZM7.45683 9.07684L6.60837 8.2284L3.77999 11.0569L4.62845 11.9053L7.45683 9.07684ZM6.60839 11.0569L10.851 6.81421L8.0226 3.98579L3.77996 8.22843L6.60839 11.0569Z" fill="#252D35" mask="url(#path-1-inside-1_971_3661)"/>
</svg>
