<svg width="20" height="20" viewBox="0 0 20 20" fill="none" xmlns="http://www.w3.org/2000/svg">
<mask id="path-1-inside-1_971_3472" fill="white">
<path d="M14.2857 0L20 5.71429L7.85714 17.8571L2.14286 12.1429L14.2857 0Z"/>
<path d="M0.714286 13.5714L6.42857 19.2857L0 20L0.714286 13.5714Z"/>
</mask>
<path d="M14.2857 0L15.6999 -1.41421L14.2857 -2.82843L12.8715 -1.41421L14.2857 0ZM20 5.71429L21.4142 7.1285L22.8284 5.71429L21.4142 4.30007L20 5.71429ZM7.85714 17.8571L6.44293 19.2714L7.85714 20.6856L9.27136 19.2714L7.85714 17.8571ZM2.14286 12.1429L0.728643 10.7286L-0.685571 12.1429L0.728643 13.5571L2.14286 12.1429ZM0.714286 13.5714L2.1285 12.1572L-0.813948 9.21477L-1.27348 13.3506L0.714286 13.5714ZM6.42857 19.2857L6.64943 21.2735L10.7852 20.8139L7.84279 17.8715L6.42857 19.2857ZM0 20L-1.98777 19.7791L-2.26385 22.2638L0.220863 21.9878L0 20ZM12.8715 1.41421L18.5858 7.1285L21.4142 4.30007L15.6999 -1.41421L12.8715 1.41421ZM18.5858 4.30007L6.44293 16.4429L9.27136 19.2714L21.4142 7.1285L18.5858 4.30007ZM9.27136 16.4429L3.55707 10.7286L0.728643 13.5571L6.44293 19.2714L9.27136 16.4429ZM3.55707 13.5571L15.6999 1.41421L12.8715 -1.41421L0.728643 10.7286L3.55707 13.5571ZM-0.699928 14.9856L5.01436 20.6999L7.84279 17.8715L2.1285 12.1572L-0.699928 14.9856ZM6.20771 17.2979L-0.220863 18.0122L0.220863 21.9878L6.64943 21.2735L6.20771 17.2979ZM1.98777 20.2209L2.70205 13.7923L-1.27348 13.3506L-1.98777 19.7791L1.98777 20.2209Z" fill="#B8884B" mask="url(#path-1-inside-1_971_3472)"/>
</svg>
