<svg width="12" height="8" viewBox="0 0 12 8" fill="none" xmlns="http://www.w3.org/2000/svg">
<path d="M0.999038 4.20897C0.948359 4.13296 0.9035 4.06286 0.864474 4C0.9035 3.93714 0.948359 3.86704 0.999038 3.79103C1.22871 3.44652 1.57324 2.98742 2.03033 2.53033C2.94858 1.61208 4.26907 0.75 6 0.75C7.73093 0.75 9.05142 1.61208 9.96967 2.53033C10.4268 2.98742 10.7713 3.44652 11.001 3.79103C11.0516 3.86704 11.0965 3.93714 11.1355 4C11.0965 4.06286 11.0516 4.13296 11.001 4.20897C10.7713 4.55348 10.4268 5.01258 9.96967 5.46967C9.05142 6.38792 7.73093 7.25 6 7.25C4.26907 7.25 2.94858 6.38792 2.03033 5.46967C1.57324 5.01258 1.22871 4.55348 0.999038 4.20897ZM0.670129 3.66321L0.670149 3.66325L0.670129 3.66321ZM0.670129 4.33679C0.670017 4.33701 0.670024 4.337 0.670149 4.33675L0.670129 4.33679Z" stroke="#252D35" stroke-width="1.5"/>
<circle cx="6" cy="4" r="1" fill="#252D35"/>
</svg>
