<svg width="18" height="18" viewBox="0 0 18 18" fill="none" xmlns="http://www.w3.org/2000/svg">
<mask id="path-1-inside-1_1268_9089" fill="white">
<path d="M0 16.6154L16.6154 1.40057e-06L18 1.38462L1.38462 18L0 16.6154Z"/>
<path d="M1.38462 0L18 16.6154L16.6154 18L1.51729e-06 1.38462L1.38462 0Z"/>
</mask>
<path d="M0 16.6154L-1.41421 15.2012L-2.82843 16.6154L-1.41421 18.0296L0 16.6154ZM16.6154 1.40057e-06L18.0296 -1.41421L16.6154 -2.82843L15.2012 -1.41421L16.6154 1.40057e-06ZM18 1.38462L19.4142 2.79883L20.8284 1.38462L19.4142 -0.0295967L18 1.38462ZM1.38462 18L-0.0295981 19.4142L1.38462 20.8284L2.79883 19.4142L1.38462 18ZM1.38462 0L2.79883 -1.41421L1.38462 -2.82843L-0.0295967 -1.41421L1.38462 0ZM18 16.6154L19.4142 18.0296L20.8284 16.6154L19.4142 15.2012L18 16.6154ZM16.6154 18L15.2012 19.4142L16.6154 20.8284L18.0296 19.4142L16.6154 18ZM1.51729e-06 1.38462L-1.41421 -0.0295982L-2.82843 1.38462L-1.41421 2.79883L1.51729e-06 1.38462ZM1.41421 18.0296L18.0296 1.41421L15.2012 -1.41421L-1.41421 15.2012L1.41421 18.0296ZM15.2012 1.41421L16.5858 2.79883L19.4142 -0.0295967L18.0296 -1.41421L15.2012 1.41421ZM16.5858 -0.0295968L-0.0295983 16.5858L2.79883 19.4142L19.4142 2.79883L16.5858 -0.0295968ZM2.79883 16.5858L1.41421 15.2012L-1.41421 18.0296L-0.0295981 19.4142L2.79883 16.5858ZM-0.0295967 1.41421L16.5858 18.0296L19.4142 15.2012L2.79883 -1.41421L-0.0295967 1.41421ZM16.5858 15.2012L15.2012 16.5858L18.0296 19.4142L19.4142 18.0296L16.5858 15.2012ZM18.0296 16.5858L1.41422 -0.0295983L-1.41421 2.79883L15.2012 19.4142L18.0296 16.5858ZM1.41422 2.79883L2.79883 1.41421L-0.0295967 -1.41421L-1.41421 -0.0295982L1.41422 2.79883Z" fill="#252D35" mask="url(#path-1-inside-1_1268_9089)"/>
</svg>
