<svg width="978" height="270" viewBox="0 0 978 270" fill="none" xmlns="http://www.w3.org/2000/svg">
<path d="M62.1925 124C44.3093 124 29.4446 118.038 17.5984 106.115C5.86615 94.3059 0 79.6007 0 62C0 44.2857 5.86615 29.5806 17.5984 17.8846C29.4446 5.96154 44.3093 0 62.1925 0C73.0136 0 82.9803 2.55495 92.0928 7.66484C101.319 12.6612 108.495 19.4744 113.621 28.1044L93.2888 39.8571C90.3273 34.5201 86.1127 30.3755 80.6453 27.4231C75.1778 24.3571 69.0269 22.8242 62.1925 22.8242C50.5742 22.8242 41.1769 26.4579 34.0009 33.7253C26.9387 41.1062 23.4076 50.5311 23.4076 62C23.4076 73.3553 26.9387 82.7234 34.0009 90.1044C41.1769 97.3718 50.5742 101.005 62.1925 101.005C69.0269 101.005 75.1778 99.5293 80.6453 96.5769C86.2267 93.511 90.4412 89.3663 93.2888 84.1429L113.621 95.8956C108.495 104.526 101.319 111.396 92.0928 116.505C82.9803 121.502 73.0136 124 62.1925 124Z" fill="#E2E8ED"/>
<path d="M287.204 88.0604H222.79C225.638 98.7344 233.668 104.071 246.881 104.071C255.31 104.071 261.689 101.233 266.018 95.5549L283.787 105.775C275.358 117.925 262.942 124 246.54 124C232.415 124 221.082 119.742 212.539 111.225C203.996 102.709 199.724 91.978 199.724 79.033C199.724 66.315 203.939 55.641 212.368 47.011C220.683 38.381 231.504 34.0659 244.831 34.0659C257.475 34.0659 267.783 38.381 275.756 47.011C283.958 55.641 288.058 66.315 288.058 79.033C288.058 81.4176 287.774 84.4267 287.204 88.0604ZM222.449 71.0275H266.018C264.765 65.4634 262.202 61.2051 258.329 58.2528C254.57 55.3004 250.071 53.8242 244.831 53.8242C238.908 53.8242 234.01 55.3571 230.137 58.4231C226.264 61.3755 223.702 65.5769 222.449 71.0275Z" fill="#E2E8ED"/>
<path d="M346.843 78.522L382.211 121.615H356.582L325.486 82.9505V121.615H303.445V36.4506H325.486V73.9231L354.873 36.4506H381.186L346.843 78.522Z" fill="#E2E8ED"/>
<path d="M515.017 36.4506H554.998V121.615H533.47V95.044H525.781L506.133 121.615H480.675L502.032 92.489C496.565 90.2179 492.179 86.641 488.876 81.7582C485.687 76.8755 484.092 71.5385 484.092 65.7473C484.092 57.9121 486.939 51.0421 492.635 45.1374C498.216 39.3462 505.677 36.4506 515.017 36.4506ZM533.47 56.0385H516.726C513.536 56.0385 510.86 57.0037 508.695 58.9341C506.645 60.8645 505.62 63.3626 505.62 66.4286C505.62 69.4945 506.645 71.9359 508.695 73.7527C510.86 75.5696 513.536 76.478 516.726 76.478H533.47V56.0385Z" fill="#E2E8ED"/>
<path d="M793.678 63.7033H810.252C819.934 63.7033 827.736 66.3718 833.659 71.7088C839.582 76.9322 842.544 83.9157 842.544 92.6593C842.544 101.403 839.582 108.443 833.659 113.78C827.736 119.004 819.934 121.615 810.252 121.615H771.638V36.4506H793.678V63.7033ZM793.678 102.198H810.422C813.498 102.198 816.004 101.346 817.94 99.6429C819.991 97.826 821.016 95.4982 821.016 92.6593C821.016 89.8205 819.991 87.4927 817.94 85.6758C816.004 83.859 813.498 82.9505 810.422 82.9505H793.678V102.198Z" fill="#E2E8ED"/>
<path d="M977.146 88.0604H912.732C915.58 98.7344 923.61 104.071 936.823 104.071C945.252 104.071 951.631 101.233 955.959 95.5549L973.729 105.775C965.3 117.925 952.884 124 936.481 124C922.357 124 911.023 119.742 902.481 111.225C893.938 102.709 889.666 91.978 889.666 79.033C889.666 66.315 893.881 55.641 902.31 47.011C910.625 38.381 921.446 34.0659 934.773 34.0659C947.416 34.0659 957.725 38.381 965.698 47.011C973.899 55.641 978 66.315 978 79.033C978 81.4176 977.715 84.4267 977.146 88.0604ZM912.39 71.0275H955.959C954.706 65.4634 952.143 61.2051 948.271 58.2528C944.512 55.3004 940.013 53.8242 934.773 53.8242C928.85 53.8242 923.952 55.3571 920.079 58.4231C916.206 61.3755 913.643 65.5769 912.39 71.0275Z" fill="#E2E8ED"/>
<path d="M120 37H195.696V57.9997H169.04V121.676H146.998V57.9997H120V37Z" fill="#E2E8ED"/>
<path d="M398.83 37H466.496V121.676H444.453V57.9997H420.873V86.2814C420.873 112.362 408.855 124.16 384.819 121.676V101.184C389.376 102.313 392.85 101.523 395.242 98.8135C397.634 96.1039 398.83 91.5314 398.83 85.096V37Z" fill="#E2E8ED"/>
<path d="M631.124 69.0075V37H653.166V121.676H631.124V89.4991H597.12V121.676H575.077V37H597.12V69.0075H631.124Z" fill="#E2E8ED"/>
<path d="M729.409 69.0075V37H751.451V109H729.409V89.4991H695.405V121.676H673.362V37H695.405V69.0075H729.409Z" fill="#E2E8ED"/>
<path d="M851.957 121.676V37H874V121.676H851.957Z" fill="#E2E8ED"/>
<path d="M375.129 270C367.388 270 360.914 267.409 355.707 262.227C350.569 257.045 348 250.636 348 243C348 235.364 350 230.114 354 227C354 227 366.759 227 374.5 227C379.501 227 396.5 227 396.5 227C397.5 228 397.5 228 398.148 229.193L386.742 235.841C385.714 233.727 384.138 232.057 382.015 230.83C379.959 229.602 377.63 228.989 375.027 228.989C371.053 228.989 367.765 230.318 365.161 232.977C362.558 235.568 361.256 238.909 361.256 243C361.256 246.955 362.558 250.295 365.161 253.023C367.765 255.614 371.053 256.909 375.027 256.909C377.699 256.909 380.062 256.33 382.117 255.17C384.241 253.943 385.817 252.273 386.844 250.159L398.354 256.705C396.093 260.795 392.873 264.034 388.694 266.42C384.584 268.807 380.062 270 375.129 270Z" fill="#CBD3DC"/>
<path d="M400.029 217.432H445.553V230.114H429.522V268.568H416.265V230.114H400.029V217.432Z" fill="#CBD3DC"/>
<path d="M500.568 248.42H461.826C463.539 254.83 468.369 258.034 476.316 258.034C481.385 258.034 485.222 256.33 487.825 252.92L498.513 259.057C493.443 266.352 485.976 270 476.11 270C467.615 270 460.799 267.443 455.66 262.33C450.522 257.216 447.953 250.773 447.953 243C447.953 235.364 450.488 228.955 455.558 223.773C460.559 218.591 467.067 216 475.083 216C482.687 216 488.887 218.591 493.683 223.773C498.615 228.955 501.082 235.364 501.082 243C501.082 244.432 500.91 246.239 500.568 248.42ZM461.621 238.193H487.825C487.072 234.852 485.53 232.295 483.201 230.523C480.94 228.75 478.234 227.864 475.083 227.864C471.52 227.864 468.574 228.784 466.245 230.625C463.916 232.398 462.374 234.92 461.621 238.193Z" fill="#CBD3DC"/>
<path d="M544.042 236.761V217.432H557.299V268.568H544.042V249.136H523.592V268.568H510.336V227H523.592V236.761H544.042Z" fill="#CBD3DC"/>
<path d="M582.701 233.795H592.669C598.493 233.795 603.185 235.398 606.748 238.602C610.31 241.739 612.092 245.932 612.092 251.182C612.092 256.432 610.31 260.659 606.748 263.864C603.185 267 598.493 268.568 592.669 268.568H569.445V217.432H582.701V233.795ZM617.744 268.568V227H631V268.568H617.744ZM582.701 256.909H592.772C594.622 256.909 596.129 256.398 597.294 255.375C598.527 254.284 599.143 252.886 599.143 251.182C599.143 249.477 598.527 248.08 597.294 246.989C596.129 245.898 594.622 245.352 592.772 245.352H582.701V256.909Z" fill="#CBD3DC"/>
</svg>
