<svg width="26" height="25" viewBox="0 0 26 25" fill="none" xmlns="http://www.w3.org/2000/svg">
<path d="M18.2403 14.1C19.9535 12.6 21.062 10.5 21.062 8C21.062 3.6 17.4341 0 13 0C8.56589 0 4.93798 3.6 4.93798 8C4.93798 10.5 6.04651 12.6 7.75969 14.1C3.62791 16 0.503876 20.1 0 25H3.02326C3.72868 19.9 7.96124 16 13 16C18.0388 16 22.2713 19.9 22.9767 25H26C25.4961 20.1 22.3721 16 18.2403 14.1ZM7.96124 8C7.96124 5.2 10.1783 3 13 3C15.8217 3 18.0388 5.2 18.0388 8C18.0388 10.8 15.8217 13 13 13C10.1783 13 7.96124 10.8 7.96124 8Z" fill="#F1F5F8"/>
</svg>
