<svg width="188" height="27" viewBox="0 0 188 27" fill="none" xmlns="http://www.w3.org/2000/svg">
<path d="M32.487 0.0876465H45.6825V2.62066H35.1261V10.8338H45.6825V13.3668H35.1261V26.1853H32.487V0.0876465Z" fill="#01305E"/>
<path d="M64.1703 2.50295C62.3093 2.50295 60.5578 2.97733 58.8793 3.92607C57.2007 4.87482 55.9236 6.18847 54.9748 7.79404C54.0261 9.39961 53.5882 11.2241 53.5882 13.2311C53.5882 16.1868 54.6099 18.6681 56.6898 20.7116C58.7698 22.755 61.2511 23.7768 64.1703 23.7768C66.1043 23.7768 67.9288 23.3024 69.5709 22.3901C71.213 21.4414 72.5266 20.1642 73.4389 18.5587C74.3511 16.9531 74.8255 15.1286 74.8255 13.1581C74.8255 11.1876 74.3511 9.39961 73.4389 7.79404C72.5266 6.18847 71.213 4.91131 69.4979 3.96256C67.8194 2.97733 66.0313 2.50295 64.1703 2.50295ZM64.0244 0.0581055C67.8194 0.0581055 71.0305 1.29877 73.5848 3.8166C76.1391 6.33443 77.4163 9.39961 77.4163 13.0851C77.4163 16.7341 76.1391 19.7993 73.5848 22.3536C71.0305 24.8715 67.8923 26.1486 64.2433 26.1486C60.5213 26.1486 57.3832 24.8715 54.7924 22.3536C52.238 19.8358 50.9609 16.7706 50.9609 13.1946C50.9609 10.8227 51.5447 8.59682 52.7124 6.55337C53.8801 4.50992 55.4857 2.90434 57.4926 1.77315C59.4996 0.641949 61.689 0.0581055 64.0244 0.0581055Z" fill="#01305E"/>
<path d="M82.6296 0.0874023H85.1815V23.6905H94.9453V26.1851H82.6296V0.0874023Z" fill="#01305E"/>
<path d="M130.427 0.0874023H127.788V26.1851H130.427V0.0874023Z" fill="#01305E"/>
<path d="M186.504 4.8747L184.57 6.69922C183.183 5.34908 181.65 4.29086 179.972 3.59755C178.293 2.90423 176.688 2.53933 175.082 2.53933C173.112 2.53933 171.251 3.0137 169.463 3.96245C167.675 4.9112 166.288 6.22484 165.303 7.8669C164.317 9.50897 163.843 11.224 163.843 13.0485C163.843 14.9095 164.354 16.6975 165.376 18.3761C166.397 20.0546 167.784 21.3683 169.572 22.3535C171.36 23.3023 173.331 23.8131 175.447 23.8131C178.038 23.8131 180.227 23.0833 182.015 21.6602C183.803 20.2371 184.862 18.3396 185.19 16.0407H177.162V13.6324H188C187.963 17.4638 186.832 20.529 184.533 22.7914C182.234 25.0538 179.206 26.185 175.374 26.185C170.74 26.185 167.054 24.6159 164.354 21.4778C162.274 19.0694 161.216 16.2962 161.216 13.1215C161.216 10.7861 161.8 8.59671 163.004 6.55326C164.208 4.5098 165.85 2.94072 167.93 1.80952C170.01 0.678326 172.382 0.0944824 175.009 0.0944824C177.126 0.0944824 179.133 0.459385 181.03 1.22568C182.855 1.99198 184.716 3.19615 186.504 4.8747Z" fill="#01305E"/>
<path d="M135.706 3.41531V0.496094H136.29L156.104 23.5214V26.1487H155.52L135.706 3.41531Z" fill="#01305E"/>
<path d="M156.103 3.48829V20.0914L153.512 17.0992V0.496094L156.103 3.48829Z" fill="#01305E"/>
<path d="M135.705 23.0105V6.88184L138.406 9.98351V26.1487L135.705 23.0105Z" fill="#01305E"/>
<path d="M120.319 5.63603C118.859 3.45485 116.861 1.92419 114.287 1.04406C112.519 0.4318 109.638 0.0874023 105.68 0.0874023H100.493L102.76 2.65125H104.643C108.446 2.65125 111.175 2.88085 112.827 3.37831C115.017 4.02884 116.746 5.25337 117.976 7.05189C119.205 8.85041 119.82 10.9933 119.82 13.4806C119.82 15.8914 119.243 17.9195 118.129 19.565C116.976 21.2105 115.44 22.3585 113.442 23.009C112.02 23.4682 109.484 23.6978 105.834 23.6978H102.76V6.51616L100.224 3.64618V26.1851H108.639C111.943 26.1851 114.517 25.7259 116.323 24.7692C118.168 23.8126 119.628 22.3585 120.78 20.3686C121.933 18.3787 122.509 16.0828 122.509 13.4806C122.471 10.4576 121.779 7.85548 120.319 5.63603Z" fill="#01305E"/>
<path d="M1.09479 25.0631H10.4449L4.76384 16.8171V5.17223L18.5227 25.0631H25.0619L18.7595 15.9896L25.0323 13.8025V8.7189L15.9189 11.8813L13.1079 7.83223L25.0323 3.66489V1.064H1.06521V25.0631H1.09479ZM26.1271 26.1271H0V0H26.1271V26.1271Z" fill="#B8884B"/>
</svg>
