<svg width="398" height="80" viewBox="0 0 398 80" fill="none" xmlns="http://www.w3.org/2000/svg">
<path d="M87.7224 72.1275C87.7224 70.1781 86.3728 68.9035 84.5733 68.9035C82.8489 68.9035 81.4993 70.1781 81.4993 72.1275C81.4993 74.0769 82.8489 75.3515 84.5733 75.3515C86.3728 75.3515 87.7224 74.0769 87.7224 72.1275ZM89.4468 72.1275C89.4468 74.9016 87.4974 76.776 84.7983 76.776C83.5237 76.776 82.3241 76.2512 81.5743 75.2765V80H79.9248V67.5539H81.4993V69.0535C82.2491 68.0038 83.4487 67.5539 84.7983 67.5539C87.4974 67.479 89.4468 69.3534 89.4468 72.1275Z" fill="#252D35"/>
<path d="M97.3195 73.927V72.6524H94.7703C93.1208 72.6524 92.671 73.3272 92.671 74.0769C92.671 74.9767 93.4207 75.5765 94.6953 75.5765C95.895 75.5765 96.9446 74.9767 97.3195 73.927ZM99.044 71.2278V76.7761H97.4695V75.5765C96.9446 76.4012 95.895 76.8511 94.4704 76.8511C92.3711 76.8511 91.0215 75.7264 91.0215 74.1519C91.0215 72.6524 91.9962 71.4528 94.7703 71.4528H97.3945V71.1529C97.3945 69.7283 96.5698 68.9785 94.9203 68.9785C93.7956 68.9785 92.671 69.3534 91.9962 69.9532L91.3214 68.6786C92.2961 67.9289 93.6457 67.479 95.1452 67.479C97.6194 67.479 99.044 68.6786 99.044 71.2278Z" fill="#252D35"/>
<path d="M108.791 74.0769C108.791 75.7264 106.916 76.8511 104.517 76.8511C103.167 76.8511 101.818 76.4762 100.768 75.8014L101.293 74.5268C102.193 75.1266 103.392 75.4265 104.517 75.4265C106.091 75.4265 107.141 74.8267 107.141 73.927C107.141 73.1022 106.316 72.5774 104.967 72.5774H103.242V71.3778H104.817C106.016 71.3778 106.841 70.9279 106.841 70.1782C106.841 69.3534 105.866 68.9036 104.517 68.9036C103.542 68.9036 102.642 69.1285 101.593 69.5783L101.143 68.3037C102.343 67.7039 103.467 67.479 104.667 67.479C106.916 67.479 108.566 68.4537 108.566 69.9532C108.566 70.8529 107.891 71.6027 106.916 71.9776C108.116 72.2775 108.791 73.0273 108.791 74.0769Z" fill="#252D35"/>
<path d="M112.465 75.2765H117.638V69.0535H113.664L113.589 70.7779C113.514 72.6523 113.289 74.5268 112.465 75.2765ZM120.712 75.2765V78.8754H119.137V76.7761H111.415V78.8754H109.84V75.2765H110.29C111.64 75.2015 111.865 72.9522 111.94 70.7029L112.09 67.6289H119.287V75.2765H120.712Z" fill="#252D35"/>
<path d="M129.334 74.0772C129.334 73.1025 128.734 72.6526 127.385 72.6526H124.611V75.4267H127.31C128.659 75.4267 129.334 75.0519 129.334 74.0772ZM124.536 71.528H127.01C128.285 71.528 128.959 71.0781 128.959 70.1784C128.959 69.2787 128.285 68.9038 127.01 68.9038H124.536V71.528ZM130.984 74.2271C130.984 75.8016 129.784 76.7763 127.31 76.7763H122.886V67.5542H127.16C129.334 67.5542 130.609 68.3789 130.609 69.8785C130.609 70.8532 130.084 71.6029 129.109 71.9028C130.459 72.2777 130.984 73.0275 130.984 74.2271Z" fill="#252D35"/>
<path d="M133.608 67.5542H135.332V74.2271L140.956 67.5542H142.455V76.7013H140.806V70.0284L135.182 76.7013H133.608V67.5542Z" fill="#252D35"/>
<path d="M154.152 72.8775H152.352V76.7013H150.628V72.8775H148.828L146.354 76.7013H144.33L147.479 71.9778L144.555 67.5542H146.354L148.828 71.453H150.628V67.5542H152.352V71.453H154.152L156.626 67.5542H158.425L155.501 71.9778L158.65 76.7013H156.701L154.152 72.8775Z" fill="#252D35"/>
<path d="M160.524 67.5542H162.174V71.453H167.422V67.5542H169.147V76.7013H167.422V72.8775H162.174V76.7013H160.524V67.5542Z" fill="#252D35"/>
<path d="M181.518 67.5542H183.168V76.7013H181.518V67.5542ZM178.444 73.6273C178.444 72.4277 177.694 71.9028 176.12 71.9028H174.021V75.5017H176.12C177.619 75.5017 178.444 74.9019 178.444 73.6273ZM180.169 73.6273C180.169 75.5767 178.744 76.7013 176.27 76.7013H172.371V67.5542H174.021V70.6282H176.495C178.894 70.7032 180.169 71.7529 180.169 73.6273Z" fill="#252D35"/>
<path d="M187.291 71.528H193.214C193.064 70.0284 191.865 68.9038 190.215 68.9038C188.641 68.9038 187.441 69.9535 187.291 71.528ZM194.789 72.7276H187.291C187.516 74.3021 188.791 75.4267 190.665 75.4267C191.715 75.4267 192.689 75.0519 193.364 74.3021L194.264 75.3518C193.439 76.3265 192.165 76.8513 190.59 76.8513C187.591 76.8513 185.642 74.9019 185.642 72.2027C185.642 69.5036 187.591 67.5542 190.29 67.5542C192.989 67.5542 194.864 69.4286 194.864 72.2777C194.789 72.3527 194.789 72.5776 194.789 72.7276Z" fill="#252D35"/>
<path d="M201.237 72.1275C201.237 69.4284 203.261 67.479 206.11 67.479C207.76 67.479 209.109 68.1538 209.859 69.4284L208.585 70.2531C207.985 69.3534 207.085 68.9785 206.11 68.9785C204.311 68.9785 202.961 70.2531 202.961 72.2025C202.961 74.1519 204.311 75.4265 206.11 75.4265C207.085 75.4265 208.06 74.9767 208.585 74.1519L209.859 74.9767C209.109 76.2513 207.76 76.9261 206.11 76.9261C203.261 76.8511 201.237 74.9017 201.237 72.1275Z" fill="#252D35"/>
<path d="M218.781 69.0537H215.407V76.7013H213.758V69.0537H210.384V67.5542H218.781V69.0537Z" fill="#252D35"/>
<path d="M220.956 71.528H226.879C226.729 70.0284 225.529 68.9038 223.88 68.9038C222.305 68.9038 221.106 69.9535 220.956 71.528ZM228.453 72.7276H220.956C221.181 74.3021 222.455 75.4267 224.33 75.4267C225.379 75.4267 226.354 75.0519 227.029 74.3021L227.928 75.3518C227.104 76.3265 225.829 76.8513 224.255 76.8513C221.256 76.8513 219.306 74.9019 219.306 72.2027C219.306 69.5036 221.256 67.5542 223.955 67.5542C226.654 67.5542 228.528 69.4286 228.528 72.2777C228.453 72.3527 228.453 72.5776 228.453 72.7276Z" fill="#252D35"/>
<path d="M231.078 67.5542H232.727V71.453H237.975V67.5542H239.625V76.7013H237.975V72.8775H232.727V76.7013H231.078V67.5542Z" fill="#252D35"/>
<path d="M252.071 67.5542H253.72V76.7013H252.071V67.5542ZM248.997 73.6273C248.997 72.4277 248.247 71.9028 246.672 71.9028H244.573V75.5017H246.672C248.172 75.5017 248.997 74.9019 248.997 73.6273ZM250.646 73.6273C250.646 75.5767 249.222 76.7013 246.747 76.7013H242.849V67.5542H244.498V70.6282H246.972C249.447 70.7032 250.646 71.7529 250.646 73.6273Z" fill="#252D35"/>
<path d="M261.668 67.5542H263.317V74.2271L269.016 67.5542H270.515V76.7013H268.866V70.0284L263.242 76.7013H261.668V67.5542Z" fill="#252D35"/>
<path d="M287.01 67.5542V76.7013H285.361V69.0537H280.112V76.7013H278.463V67.5542H287.01Z" fill="#252D35"/>
<path d="M291.059 71.528H296.982C296.832 70.0284 295.632 68.9038 293.983 68.9038C292.408 68.9038 291.284 69.9535 291.059 71.528ZM298.556 72.7276H291.059C291.284 74.3021 292.558 75.4267 294.433 75.4267C295.482 75.4267 296.382 75.0519 297.132 74.3021L298.031 75.3518C297.207 76.3265 295.932 76.8513 294.358 76.8513C291.359 76.8513 289.409 74.9019 289.409 72.2027C289.409 69.5036 291.359 67.5542 294.058 67.5542C296.757 67.5542 298.631 69.4286 298.631 72.2777C298.631 72.3527 298.556 72.5776 298.556 72.7276Z" fill="#252D35"/>
<path d="M309.053 72.1275C309.053 70.1781 307.704 68.9035 305.904 68.9035C304.18 68.9035 302.83 70.1781 302.83 72.1275C302.83 74.0769 304.18 75.3515 305.904 75.3515C307.704 75.3515 309.053 74.0769 309.053 72.1275ZM310.778 72.1275C310.778 74.9016 308.828 76.776 306.129 76.776C304.855 76.776 303.655 76.2512 302.905 75.2765V80H301.256V67.5539H302.83V69.0535C303.58 68.0038 304.78 67.5539 306.129 67.5539C308.828 67.479 310.778 69.3534 310.778 72.1275Z" fill="#252D35"/>
<path d="M314.002 71.528H319.925C319.775 70.0284 318.575 68.9038 316.926 68.9038C315.351 68.9038 314.151 69.9535 314.002 71.528ZM321.499 72.7276H314.002C314.226 74.3021 315.501 75.4267 317.375 75.4267C318.425 75.4267 319.325 75.0519 320.075 74.3021L320.974 75.3518C320.15 76.3265 318.875 76.8513 317.301 76.8513C314.301 76.8513 312.352 74.9019 312.352 72.2027C312.352 69.5036 314.301 67.5542 317.001 67.5542C319.7 67.5542 321.574 69.4286 321.574 72.2777C321.499 72.3527 321.499 72.5776 321.499 72.7276Z" fill="#252D35"/>
<path d="M330.946 69.0537H325.773V76.7013H324.124V67.5542H330.946V69.0537Z" fill="#252D35"/>
<path d="M339.269 72.1275C339.269 70.1782 337.919 68.9036 336.195 68.9036C334.396 68.9036 333.046 70.1782 333.046 72.1275C333.046 74.0769 334.396 75.3515 336.195 75.3515C337.994 75.3515 339.269 74.0769 339.269 72.1275ZM331.396 72.1275C331.396 69.4284 333.421 67.479 336.195 67.479C338.969 67.479 340.993 69.4284 340.993 72.1275C340.993 74.8267 338.969 76.7761 336.195 76.7761C333.421 76.8511 331.396 74.9017 331.396 72.1275Z" fill="#252D35"/>
<path d="M351.265 72.1275C351.265 70.1781 349.915 68.9035 348.116 68.9035C346.391 68.9035 345.042 70.1781 345.042 72.1275C345.042 74.0769 346.391 75.3515 348.116 75.3515C349.915 75.3515 351.265 74.0769 351.265 72.1275ZM352.989 72.1275C352.989 74.9016 351.04 76.776 348.341 76.776C347.066 76.776 345.867 76.2512 345.117 75.2765V80H343.467V67.5539H345.042V69.0535C345.792 68.0038 346.991 67.5539 348.341 67.5539C351.04 67.479 352.989 69.3534 352.989 72.1275Z" fill="#252D35"/>
<path d="M362.437 72.1275C362.437 70.1782 361.087 68.9036 359.362 68.9036C357.563 68.9036 356.213 70.1782 356.213 72.1275C356.213 74.0769 357.563 75.3515 359.362 75.3515C361.162 75.3515 362.437 74.0769 362.437 72.1275ZM354.564 72.1275C354.564 69.4284 356.588 67.479 359.362 67.479C362.137 67.479 364.161 69.4284 364.161 72.1275C364.161 74.8267 362.137 76.7761 359.362 76.7761C356.588 76.8511 354.564 74.9017 354.564 72.1275Z" fill="#252D35"/>
<path d="M367.61 75.2765H372.783V69.0535H368.809L368.734 70.7779C368.659 72.6523 368.434 74.5268 367.61 75.2765ZM375.857 75.2765V78.8754H374.358V76.7761H366.635V78.8754H365.061V75.2765H365.585C366.935 75.2015 367.16 72.9522 367.235 70.7029L367.385 67.6289H374.583V75.2765H375.857Z" fill="#252D35"/>
<path d="M381.63 72.8775H379.756V76.7013H378.106V67.5542H379.756V71.453H381.705L384.704 67.5542H386.504L382.98 71.9778L386.729 76.7013H384.779L381.63 72.8775Z" fill="#252D35"/>
<path d="M388.528 67.5542H390.178V74.2271L395.801 67.5542H397.376V76.7013H395.651V70.0284L390.028 76.7013H388.528V67.5542Z" fill="#252D35"/>
<path d="M80.0747 1.34961H105.942V6.29806H85.2481V22.3431H105.942V27.2915H85.2481V52.3337H80.0747V1.34961Z" fill="#252D35"/>
<path d="M141.556 5.02343C137.732 5.02343 134.133 5.99813 130.684 7.94752C127.235 9.89691 124.611 12.5961 122.661 15.895C120.712 19.194 119.812 22.9428 119.812 27.0665C119.812 33.1396 121.912 38.2381 126.185 42.4367C130.459 46.6354 135.557 48.7348 141.556 48.7348C145.529 48.7348 149.278 47.7601 152.652 45.8857C156.026 43.9363 158.725 41.3121 160.6 38.0131C162.474 34.7142 163.449 30.9653 163.449 26.9166C163.449 22.8679 162.474 19.194 160.6 15.895C158.725 12.5961 156.026 9.97188 152.502 8.02249C149.053 5.99813 145.379 5.02343 141.556 5.02343ZM141.256 0C149.053 0 155.651 2.5492 160.9 7.72259C166.148 12.896 168.772 19.194 168.772 26.7666C168.772 34.2643 166.148 40.5623 160.9 45.8107C155.651 50.9841 149.203 53.6082 141.706 53.6082C134.058 53.6082 127.61 50.9841 122.287 45.8107C117.038 40.6373 114.414 34.3393 114.414 26.9916C114.414 22.1181 115.614 17.5445 118.013 13.3458C120.412 9.14714 123.711 5.84817 127.835 3.5239C131.959 1.19963 136.457 0 141.256 0Z" fill="#252D35"/>
<path d="M180.993 1.34961H186.167V47.4602H205.96V52.3337H180.993V1.34961Z" fill="#252D35"/>
<path d="M275.689 0.674805H270.365V53.4583H275.689V0.674805Z" fill="#252D35"/>
<path d="M394.076 9.89713L390.103 13.646C387.254 10.8718 384.105 8.6975 380.656 7.27295C377.207 5.84839 373.908 5.09863 370.609 5.09863C366.56 5.09863 362.736 6.07332 359.062 8.02271C355.389 9.9721 352.539 12.6713 350.515 16.0452C348.491 19.4192 347.516 22.9431 347.516 26.6919C347.516 30.5157 348.566 34.1895 350.665 37.6385C352.764 41.0874 355.613 43.7865 359.287 45.8109C362.961 47.7603 367.01 48.81 371.359 48.81C376.682 48.81 381.18 47.3104 384.854 44.3863C388.528 41.4623 390.703 37.5635 391.377 32.84H374.882V27.8915H397.15C397.076 35.764 394.751 42.0621 390.028 46.7106C385.304 51.3592 379.081 53.6834 371.209 53.6834C361.687 53.6834 354.114 50.4595 348.566 44.0115C344.292 39.063 342.118 33.3648 342.118 26.8418C342.118 22.0433 343.317 17.5447 345.792 13.346C348.266 9.14736 351.64 5.92337 355.913 3.59909C360.187 1.27482 365.06 0.0751953 370.459 0.0751953C374.807 0.0751953 378.931 0.824961 382.83 2.39947C386.579 3.97398 390.403 6.4482 394.076 9.89713Z" fill="#252D35"/>
<path d="M289.709 6.89803V0.899902H290.909L331.621 48.2101V53.6084H330.421L289.709 6.89803Z" fill="#252D35"/>
<path d="M331.621 7.04798V41.1623L326.298 35.0142V0.899902L331.621 7.04798Z" fill="#252D35"/>
<path d="M289.709 47.1606V14.021L295.257 20.394V53.6086L289.709 47.1606Z" fill="#252D35"/>
<path d="M255.22 12.1465C252.371 7.87284 248.472 4.87378 243.449 3.14932C240 1.94969 234.377 1.2749 226.654 1.2749H216.532L220.956 6.29833H224.63C232.052 6.29833 237.376 6.74819 240.6 7.72289C244.873 8.99749 248.247 11.3967 250.647 14.9206C253.046 18.4445 254.245 22.6432 254.245 27.5167C254.245 32.2402 253.121 36.214 250.946 39.438C248.697 42.662 245.698 44.9113 241.799 46.1859C239.025 47.0856 234.077 47.5354 226.954 47.5354H220.956V13.871L216.007 8.24772V52.4089H232.427C238.875 52.4089 243.899 51.5092 247.423 49.6348C251.021 47.7604 253.87 44.9113 256.12 41.0125C258.369 37.1137 259.494 32.6151 259.494 27.5167C259.419 21.5936 258.069 16.4951 255.22 12.1465Z" fill="#252D35"/>
<path d="M1.64938 74.002C1.94929 74.3019 2.32417 74.4518 2.77403 74.4518C3.22389 74.4518 3.59877 74.3019 3.89868 74.002C4.19859 73.7021 4.34854 73.3272 4.34854 72.8024C4.34854 72.3525 4.19859 71.9026 3.89868 71.6027C3.59877 71.3028 3.22389 71.1529 2.77403 71.1529C2.32417 71.1529 1.94929 71.3028 1.64938 71.6027C1.34948 71.9026 1.19952 72.2775 1.19952 72.8024C1.19952 73.3272 1.34948 73.7021 1.64938 74.002ZM4.64845 74.6768C4.12361 75.2016 3.5238 75.4265 2.84901 75.4265C2.17422 75.4265 1.49943 75.2016 1.04957 74.6768C0.524734 74.1519 0.299805 73.5521 0.299805 72.8773C0.299805 72.1276 0.524734 71.5278 1.04957 71.0779C1.57441 70.5531 2.17422 70.3281 2.84901 70.3281C3.5238 70.3281 4.19859 70.5531 4.64845 71.0779C5.17328 71.6027 5.39821 72.2025 5.39821 72.8773C5.39821 73.6271 5.09831 74.2269 4.64845 74.6768Z" fill="#252D35"/>
<path d="M8.62223 75.4266C7.87246 75.4266 7.27265 75.2017 6.74781 74.6768C6.29795 74.152 5.99805 73.5522 5.99805 72.8024C5.99805 72.0526 6.22298 71.4528 6.74781 70.928C7.19767 70.4032 7.87246 70.1782 8.62223 70.1782C9.07209 70.1782 9.52195 70.2532 9.89683 70.4781C10.2717 70.7031 10.5716 71.003 10.7965 71.3029L9.97181 71.8277C9.82185 71.6028 9.6719 71.4528 9.44697 71.3029C9.22204 71.1529 8.99711 71.0779 8.6972 71.0779C8.24734 71.0779 7.79748 71.2279 7.49758 71.5278C7.19767 71.8277 7.04772 72.2026 7.04772 72.7274C7.04772 73.1773 7.19767 73.6271 7.49758 73.9271C7.79748 74.227 8.17237 74.3769 8.6972 74.3769C8.99711 74.3769 9.22204 74.3019 9.44697 74.152C9.6719 74.002 9.82185 73.8521 9.97181 73.6271L10.7216 74.3019C10.4966 74.6768 10.1967 74.9767 9.82185 75.1267C9.44697 75.3516 9.07209 75.4266 8.62223 75.4266Z" fill="#252D35"/>
<path d="M14.3203 70.4028H15.295V75.3513H14.3203V73.3269H12.4459V75.3513H11.4712V70.4028H12.4459V72.3522H14.3203V70.4028Z" fill="#252D35"/>
<path d="M17.6194 74.002C17.9193 74.3019 18.2942 74.4518 18.744 74.4518C19.1939 74.4518 19.5688 74.3019 19.8687 74.002C20.1686 73.7021 20.3185 73.3272 20.3185 72.8024C20.3185 72.3525 20.1686 71.9026 19.8687 71.6027C19.5688 71.3028 19.1939 71.1529 18.744 71.1529C18.2942 71.1529 17.9193 71.3028 17.6194 71.6027C17.3195 71.9026 17.1695 72.2775 17.1695 72.8024C17.1695 73.3272 17.3195 73.7021 17.6194 74.002ZM20.5435 74.6768C20.0186 75.2016 19.4188 75.4265 18.744 75.4265C18.0692 75.4265 17.3944 75.2016 16.9446 74.6768C16.4198 74.1519 16.1948 73.5521 16.1948 72.8773C16.1948 72.1276 16.4198 71.5278 16.9446 71.0779C17.4694 70.5531 18.0692 70.3281 18.744 70.3281C19.4188 70.3281 20.0936 70.5531 20.5435 71.0779C21.0683 71.6027 21.2932 72.2025 21.2932 72.8773C21.2932 73.6271 21.0683 74.2269 20.5435 74.6768Z" fill="#252D35"/>
<path d="M24.2922 74.4516C24.4422 74.4516 24.5921 74.3766 24.6671 74.3016C24.7421 74.2266 24.8171 74.0767 24.8171 73.8518C24.8171 73.7018 24.7421 73.5518 24.6671 73.4019C24.5921 73.3269 24.4422 73.2519 24.2922 73.2519H23.1676V74.4516H24.2922ZM24.1423 71.3025H23.1676V72.4272H24.1423C24.2922 72.4272 24.4422 72.3522 24.5171 72.2772C24.5921 72.2023 24.6671 72.0523 24.6671 71.9024C24.6671 71.7524 24.5921 71.6025 24.5171 71.5275C24.4422 71.3775 24.2922 71.3025 24.1423 71.3025ZM25.1919 72.8021C25.6418 73.027 25.8667 73.4019 25.8667 73.9267C25.8667 74.3766 25.7168 74.6765 25.4169 74.9764C25.117 75.2763 24.7421 75.3513 24.2922 75.3513H22.1929V70.4028H24.1423C24.5921 70.4028 24.892 70.5528 25.1919 70.7777C25.4918 71.0026 25.6418 71.3775 25.6418 71.7524C25.6418 72.2023 25.4918 72.5022 25.1919 72.8021Z" fill="#252D35"/>
<path d="M27.8912 73.5518H29.2408L28.566 71.5275L27.8912 73.5518ZM29.8406 75.3513L29.5407 74.4516H27.5913L27.2914 75.3513H26.2417L27.9662 70.4028H29.1658L30.8902 75.3513H29.8406Z" fill="#252D35"/>
<path d="M34.4141 70.4028H35.3887V75.3513H34.4141V73.3269H32.5396V75.3513H31.5649V70.4028H32.5396V72.3522H34.4141V70.4028Z" fill="#252D35"/>
<path d="M37.7131 74.002C38.013 74.3019 38.3879 74.4518 38.8378 74.4518C39.2876 74.4518 39.6625 74.3019 39.9624 74.002C40.2623 73.7021 40.4123 73.3272 40.4123 72.8024C40.4123 72.3525 40.2623 71.9026 39.9624 71.6027C39.6625 71.3028 39.2876 71.1529 38.8378 71.1529C38.3879 71.1529 38.013 71.3028 37.7131 71.6027C37.4132 71.9026 37.2633 72.2775 37.2633 72.8024C37.1883 73.3272 37.3382 73.7021 37.7131 74.002ZM40.6372 74.6768C40.1124 75.2016 39.5126 75.4265 38.8378 75.4265C38.088 75.4265 37.4882 75.2016 37.0383 74.6768C36.5135 74.1519 36.2886 73.5521 36.2886 72.8773C36.2886 72.1276 36.5135 71.5278 37.0383 71.0779C37.5632 70.5531 38.163 70.3281 38.8378 70.3281C39.5875 70.3281 40.1874 70.5531 40.6372 71.0779C41.1621 71.6027 41.387 72.2025 41.387 72.8773C41.387 73.6271 41.1621 74.2269 40.6372 74.6768Z" fill="#252D35"/>
<path d="M46.3357 74.4516C46.4856 74.4516 46.6356 74.3766 46.7106 74.3016C46.7855 74.2266 46.8605 74.0767 46.8605 73.8518C46.8605 73.7018 46.7855 73.5518 46.7106 73.4019C46.6356 73.3269 46.4856 73.2519 46.3357 73.2519H45.211V74.4516H46.3357ZM46.1857 71.3025H45.211V72.4272H46.1857C46.3357 72.4272 46.4856 72.3522 46.5606 72.2772C46.6356 72.2023 46.7106 72.0523 46.7106 71.9024C46.7106 71.7524 46.6356 71.6025 46.5606 71.5275C46.4856 71.3775 46.3357 71.3025 46.1857 71.3025ZM47.2354 72.8021C47.6853 73.027 47.9102 73.4019 47.9102 73.9267C47.9102 74.3766 47.7602 74.6765 47.4603 74.9764C47.1604 75.2763 46.7855 75.3513 46.3357 75.3513H44.2363V70.4028H46.1857C46.6356 70.4028 46.9355 70.5528 47.2354 70.7777C47.5353 71.0026 47.6853 71.3775 47.6853 71.7524C47.6853 72.2023 47.5353 72.5022 47.2354 72.8021Z" fill="#252D35"/>
<path d="M50.3841 75.3518V74.6021L52.1085 72.8776C52.4834 72.5027 52.7083 72.1278 52.7083 71.9029C52.7083 71.678 52.6334 71.528 52.5584 71.453C52.4084 71.3031 52.2585 71.3031 52.1085 71.3031C51.7336 71.3031 51.4337 71.528 51.2838 71.9029L50.3091 71.3031C50.459 70.9282 50.684 70.7033 50.9839 70.5533C51.2838 70.4034 51.5837 70.2534 51.9586 70.2534C52.4084 70.2534 52.7833 70.4034 53.0832 70.7033C53.3831 71.0032 53.5331 71.3781 53.5331 71.8279C53.5331 72.3528 53.2332 72.8776 52.7083 73.4024L51.7336 74.3771H53.608V75.3518H50.3841Z" fill="#252D35"/>
<path d="M55.5575 74.077C55.7075 74.3769 56.0074 74.5268 56.3073 74.5268C56.6072 74.5268 56.9071 74.3769 57.0571 74.077C57.207 73.777 57.282 73.4022 57.282 72.8773C57.282 72.3525 57.207 71.9776 57.0571 71.6777C56.9071 71.3778 56.6072 71.2278 56.3073 71.2278C56.0074 71.2278 55.7075 71.3778 55.5575 71.6777C55.4076 71.9776 55.3326 72.3525 55.3326 72.8773C55.2576 73.4022 55.3326 73.777 55.5575 74.077ZM56.3073 75.4265C55.7075 75.4265 55.1827 75.2016 54.8827 74.7517C54.5079 74.3019 54.3579 73.6271 54.3579 72.8773C54.3579 72.1276 54.5079 71.4528 54.8827 71.0029C55.2576 70.5531 55.7075 70.3281 56.3073 70.3281C56.9071 70.3281 57.4319 70.5531 57.7319 71.0029C58.1067 71.4528 58.2567 72.1276 58.2567 72.8773C58.2567 73.6271 58.1067 74.3019 57.7319 74.7517C57.4319 75.2016 56.9071 75.4265 56.3073 75.4265Z" fill="#252D35"/>
<path d="M60.206 74.077C60.3559 74.3769 60.6558 74.5268 60.9557 74.5268C61.2556 74.5268 61.5555 74.3769 61.7055 74.077C61.8555 73.777 61.9304 73.4022 61.9304 72.8773C61.9304 72.3525 61.8555 71.9776 61.7055 71.6777C61.5555 71.3778 61.2556 71.2278 60.9557 71.2278C60.6558 71.2278 60.3559 71.3778 60.206 71.6777C60.056 71.9776 59.981 72.3525 59.981 72.8773C59.9061 73.4022 59.981 73.777 60.206 74.077ZM60.9557 75.4265C60.3559 75.4265 59.8311 75.2016 59.5312 74.7517C59.1563 74.3019 59.0063 73.6271 59.0063 72.8773C59.0063 72.1276 59.1563 71.4528 59.5312 71.0029C59.9061 70.5531 60.3559 70.3281 60.9557 70.3281C61.5555 70.3281 62.0804 70.5531 62.3803 71.0029C62.7552 71.4528 62.9051 72.1276 62.9051 72.8773C62.9051 73.6271 62.7552 74.3019 62.3803 74.7517C62.0804 75.2016 61.5555 75.4265 60.9557 75.4265Z" fill="#252D35"/>
<path d="M65.6795 72.4274C65.9794 72.5024 66.2793 72.7273 66.5043 72.9523C66.7292 73.1772 66.8042 73.4771 66.8042 73.852C66.8042 74.3768 66.6542 74.7517 66.2793 75.0516C65.9045 75.3515 65.5296 75.5015 65.0047 75.5015C64.6299 75.5015 64.255 75.4265 63.9551 75.2015C63.6552 75.0516 63.4302 74.7517 63.2803 74.4518L64.105 74.0019C64.255 74.3768 64.4799 74.6017 65.0047 74.6017C65.2297 74.6017 65.4546 74.5268 65.6045 74.4518C65.7545 74.3018 65.8295 74.1519 65.8295 73.9269C65.8295 73.702 65.7545 73.5521 65.6045 73.4021C65.4546 73.2522 65.3046 73.2522 65.0047 73.2522H64.7798L64.4049 72.6523L65.3796 71.3777H63.4302V70.478H66.5792V71.3028L65.6795 72.4274Z" fill="#252D35"/>
<path d="M2.77413 64.2549H26.4667L12.0712 43.3365V13.7957L46.9353 64.2549H63.5052L47.5351 41.2371L63.4302 35.6889V22.7929L40.3374 30.8154L33.2146 20.5436L63.4302 9.9719V3.37396H2.69916V64.2549H2.77413ZM66.2043 66.9541H0V0.674805H66.2043V66.9541Z" fill="#252D35"/>
</svg>
