<svg width="596" height="120" viewBox="0 0 596 120" fill="none" xmlns="http://www.w3.org/2000/svg">
<path d="M131.57 108.191C131.57 105.267 129.546 103.355 126.847 103.355C124.261 103.355 122.237 105.267 122.237 108.191C122.237 111.115 124.261 113.027 126.847 113.027C129.546 113.027 131.57 111.115 131.57 108.191ZM134.157 108.191C134.157 112.352 131.233 115.164 127.184 115.164C125.273 115.164 123.473 114.377 122.349 112.915V120H119.875V101.331H122.237V103.58C123.361 102.005 125.16 101.331 127.184 101.331C131.233 101.218 134.157 104.03 134.157 108.191Z" fill="#F1F5F8"/>
<path d="M145.964 110.89V108.978H142.14C139.666 108.978 138.992 109.991 138.992 111.115C138.992 112.465 140.116 113.364 142.028 113.364C143.827 113.364 145.401 112.465 145.964 110.89ZM148.55 106.842V115.164H146.189V113.364C145.401 114.602 143.827 115.276 141.69 115.276C138.542 115.276 136.518 113.589 136.518 111.228C136.518 108.978 137.979 107.179 142.14 107.179H146.076V106.729C146.076 104.592 144.839 103.468 142.365 103.468C140.678 103.468 138.992 104.03 137.979 104.93L136.967 103.018C138.429 101.893 140.453 101.218 142.702 101.218C146.413 101.218 148.55 103.018 148.55 106.842Z" fill="#F1F5F8"/>
<path d="M163.169 111.115C163.169 113.589 160.358 115.276 156.759 115.276C154.735 115.276 152.711 114.714 151.137 113.702L151.924 111.79C153.273 112.69 155.073 113.14 156.759 113.14C159.121 113.14 160.695 112.24 160.695 110.89C160.695 109.653 159.458 108.866 157.434 108.866H154.848V107.066H157.209C159.008 107.066 160.245 106.392 160.245 105.267C160.245 104.03 158.784 103.355 156.759 103.355C155.297 103.355 153.948 103.692 152.374 104.367L151.699 102.455C153.498 101.556 155.185 101.218 156.984 101.218C160.358 101.218 162.832 102.68 162.832 104.93C162.832 106.279 161.82 107.404 160.358 107.966C162.157 108.416 163.169 109.541 163.169 111.115Z" fill="#F1F5F8"/>
<path d="M168.68 112.915H176.439V103.58H170.479L170.367 106.167C170.254 108.978 169.917 111.79 168.68 112.915ZM181.05 112.915V118.313H178.688V115.164H167.106V118.313H164.744V112.915H165.419C167.443 112.802 167.78 109.428 167.893 106.054L168.118 101.443H178.913V112.915H181.05Z" fill="#F1F5F8"/>
<path d="M193.981 111.115C193.981 109.653 193.082 108.978 191.058 108.978H186.897V113.139H190.945C192.969 113.139 193.981 112.577 193.981 111.115ZM186.785 107.291H190.495C192.407 107.291 193.419 106.616 193.419 105.267C193.419 103.917 192.407 103.355 190.495 103.355H186.785V107.291ZM196.455 111.34C196.455 113.702 194.656 115.164 190.945 115.164H184.311V101.331H190.72C193.981 101.331 195.893 102.568 195.893 104.817C195.893 106.279 195.106 107.404 193.644 107.854C195.668 108.416 196.455 109.541 196.455 111.34Z" fill="#F1F5F8"/>
<path d="M200.392 101.331H202.978V111.34L211.412 101.331H213.661V115.051H211.187V105.042L202.753 115.051H200.392V101.331Z" fill="#F1F5F8"/>
<path d="M231.203 109.316H228.504V115.051H225.918V109.316H223.219L219.508 115.051H216.472L221.195 107.966L216.809 101.331H219.508L223.219 107.179H225.918V101.331H228.504V107.179H231.203L234.914 101.331H237.613L233.227 107.966L237.95 115.051H235.026L231.203 109.316Z" fill="#F1F5F8"/>
<path d="M240.762 101.331H243.236V107.179H251.107V101.331H253.694V115.051H251.107V109.316H243.236V115.051H240.762V101.331Z" fill="#F1F5F8"/>
<path d="M272.249 101.331H274.722V115.051H272.249V101.331ZM267.638 110.44C267.638 108.641 266.513 107.854 264.152 107.854H261.003V113.252H264.152C266.401 113.252 267.638 112.352 267.638 110.44ZM270.224 110.44C270.224 113.364 268.088 115.051 264.377 115.051H258.529V101.331H261.003V105.942H264.714C268.313 106.054 270.224 107.629 270.224 110.44Z" fill="#F1F5F8"/>
<path d="M280.908 107.291H289.791C289.566 105.042 287.767 103.355 285.293 103.355C282.932 103.355 281.132 104.929 280.908 107.291ZM292.153 109.091H280.908C281.245 111.452 283.157 113.139 285.968 113.139C287.542 113.139 289.004 112.577 290.016 111.452L291.366 113.027C290.129 114.489 288.217 115.276 285.855 115.276C281.357 115.276 278.434 112.352 278.434 108.303C278.434 104.255 281.357 101.331 285.406 101.331C289.454 101.331 292.265 104.142 292.265 108.416C292.153 108.528 292.153 108.866 292.153 109.091Z" fill="#F1F5F8"/>
<path d="M301.823 108.191C301.823 104.142 304.859 101.218 309.133 101.218C311.607 101.218 313.631 102.23 314.755 104.142L312.844 105.379C311.944 104.03 310.595 103.468 309.133 103.468C306.434 103.468 304.41 105.379 304.41 108.304C304.41 111.228 306.434 113.14 309.133 113.14C310.595 113.14 312.056 112.465 312.844 111.228L314.755 112.465C313.631 114.377 311.607 115.389 309.133 115.389C304.859 115.276 301.823 112.352 301.823 108.191Z" fill="#F1F5F8"/>
<path d="M328.138 103.58H323.077V115.051H320.603V103.58H315.543V101.331H328.138V103.58Z" fill="#F1F5F8"/>
<path d="M331.399 107.291H340.283C340.058 105.042 338.258 103.355 335.784 103.355C333.423 103.355 331.624 104.929 331.399 107.291ZM342.644 109.091H331.399C331.736 111.452 333.648 113.139 336.459 113.139C338.033 113.139 339.495 112.577 340.507 111.452L341.857 113.027C340.62 114.489 338.708 115.276 336.347 115.276C331.849 115.276 328.925 112.352 328.925 108.303C328.925 104.255 331.849 101.331 335.897 101.331C339.945 101.331 342.756 104.142 342.756 108.416C342.644 108.528 342.644 108.866 342.644 109.091Z" fill="#F1F5F8"/>
<path d="M346.58 101.331H349.054V107.179H356.926V101.331H359.4V115.051H356.926V109.316H349.054V115.051H346.58V101.331Z" fill="#F1F5F8"/>
<path d="M378.067 101.331H380.541V115.051H378.067V101.331ZM373.456 110.44C373.456 108.641 372.332 107.854 369.97 107.854H366.822V113.252H369.97C372.22 113.252 373.456 112.352 373.456 110.44ZM375.93 110.44C375.93 113.364 373.794 115.051 370.083 115.051H364.235V101.331H366.709V105.942H370.42C374.131 106.054 375.93 107.629 375.93 110.44Z" fill="#F1F5F8"/>
<path d="M392.461 101.331H394.935V111.34L403.481 101.331H405.73V115.051H403.256V105.042L394.822 115.051H392.461V101.331Z" fill="#F1F5F8"/>
<path d="M430.47 101.331V115.051H427.996V103.58H420.124V115.051H417.65V101.331H430.47Z" fill="#F1F5F8"/>
<path d="M436.542 107.291H445.426C445.201 105.042 443.402 103.355 440.928 103.355C438.566 103.355 436.88 104.929 436.542 107.291ZM447.788 109.091H436.542C436.88 111.452 438.791 113.139 441.603 113.139C443.177 113.139 444.526 112.577 445.651 111.452L447 113.027C445.763 114.489 443.852 115.276 441.49 115.276C436.992 115.276 434.068 112.352 434.068 108.303C434.068 104.255 436.992 101.331 441.04 101.331C445.089 101.331 447.9 104.142 447.9 108.416C447.9 108.528 447.788 108.866 447.788 109.091Z" fill="#F1F5F8"/>
<path d="M463.531 108.191C463.531 105.267 461.507 103.355 458.808 103.355C456.222 103.355 454.197 105.267 454.197 108.191C454.197 111.115 456.222 113.027 458.808 113.027C461.507 113.027 463.531 111.115 463.531 108.191ZM466.117 108.191C466.117 112.352 463.194 115.164 459.145 115.164C457.234 115.164 455.434 114.377 454.31 112.915V120H451.836V101.331H454.197V103.58C455.322 102.005 457.121 101.331 459.145 101.331C463.194 101.218 466.117 104.03 466.117 108.191Z" fill="#F1F5F8"/>
<path d="M470.952 107.291H479.836C479.611 105.042 477.812 103.355 475.338 103.355C472.977 103.355 471.177 104.929 470.952 107.291ZM482.198 109.091H470.952C471.29 111.452 473.202 113.139 476.013 113.139C477.587 113.139 478.937 112.577 480.061 111.452L481.411 113.027C480.174 114.489 478.262 115.276 475.9 115.276C471.402 115.276 468.479 112.352 468.479 108.303C468.479 104.255 471.402 101.331 475.451 101.331C479.499 101.331 482.31 104.142 482.31 108.416C482.198 108.528 482.198 108.866 482.198 109.091Z" fill="#F1F5F8"/>
<path d="M496.367 103.58H488.608V115.051H486.134V101.331H496.367V103.58Z" fill="#F1F5F8"/>
<path d="M508.85 108.191C508.85 105.267 506.825 103.355 504.239 103.355C501.54 103.355 499.516 105.267 499.516 108.191C499.516 111.115 501.54 113.027 504.239 113.027C506.938 113.027 508.85 111.115 508.85 108.191ZM497.042 108.191C497.042 104.142 500.078 101.218 504.239 101.218C508.4 101.218 511.436 104.142 511.436 108.191C511.436 112.24 508.4 115.164 504.239 115.164C500.078 115.276 497.042 112.352 497.042 108.191Z" fill="#F1F5F8"/>
<path d="M526.842 108.191C526.842 105.267 524.817 103.355 522.119 103.355C519.532 103.355 517.508 105.267 517.508 108.191C517.508 111.115 519.532 113.027 522.119 113.027C524.817 113.027 526.842 111.115 526.842 108.191ZM529.428 108.191C529.428 112.352 526.504 115.164 522.456 115.164C520.544 115.164 518.745 114.377 517.62 112.915V120H515.146V101.331H517.508V103.58C518.633 102.005 520.432 101.331 522.456 101.331C526.504 101.218 529.428 104.03 529.428 108.191Z" fill="#F1F5F8"/>
<path d="M543.598 108.191C543.598 105.267 541.573 103.355 538.987 103.355C536.288 103.355 534.264 105.267 534.264 108.191C534.264 111.115 536.288 113.027 538.987 113.027C541.686 113.027 543.598 111.115 543.598 108.191ZM531.79 108.191C531.79 104.142 534.826 101.218 538.987 101.218C543.148 101.218 546.184 104.142 546.184 108.191C546.184 112.24 543.148 115.164 538.987 115.164C534.826 115.276 531.79 112.352 531.79 108.191Z" fill="#F1F5F8"/>
<path d="M551.357 112.915H559.116V103.58H553.156L553.043 106.167C552.931 108.978 552.594 111.79 551.357 112.915ZM563.726 112.915V118.313H561.477V115.164H549.895V118.313H547.533V112.915H548.32C550.345 112.802 550.682 109.428 550.794 106.054L551.019 101.443H561.815V112.915H563.726Z" fill="#F1F5F8"/>
<path d="M572.385 109.316H569.574V115.051H567.1V101.331H569.574V107.179H572.497L576.995 101.331H579.694L574.409 107.966L580.032 115.051H577.108L572.385 109.316Z" fill="#F1F5F8"/>
<path d="M582.73 101.331H585.204V111.34L593.638 101.331H596V115.051H593.413V105.042L584.98 115.051H582.73V101.331Z" fill="#F1F5F8"/>
<path d="M120.1 2.02441H158.896V9.44709H127.859V33.5146H158.896V40.9373H127.859V78.5005H120.1V2.02441Z" fill="#F1F5F8"/>
<path d="M212.31 7.53515C206.575 7.53515 201.178 8.99719 196.005 11.9213C190.832 14.8454 186.896 18.8941 183.972 23.8426C181.049 28.791 179.699 34.4142 179.699 40.5998C179.699 49.7095 182.848 57.3571 189.258 63.6551C195.667 69.9531 203.314 73.1022 212.31 73.1022C218.27 73.1022 223.893 71.6401 228.953 68.8285C234.014 65.9044 238.062 61.9681 240.873 57.0197C243.685 52.0712 245.147 46.448 245.147 40.3749C245.147 34.3018 243.685 28.791 240.873 23.8426C238.062 18.8941 234.014 14.9578 228.729 12.0337C223.556 8.99719 218.046 7.53515 212.31 7.53515ZM211.861 0C223.556 0 233.452 3.82381 241.323 11.5839C249.195 19.344 253.131 28.791 253.131 40.15C253.131 51.3964 249.195 60.8435 241.323 68.716C233.452 76.4761 223.781 80.4124 212.535 80.4124C201.065 80.4124 191.394 76.4761 183.41 68.716C175.538 60.956 171.603 51.5089 171.603 40.4874C171.603 33.1771 173.402 26.3168 177 20.0187C180.599 13.7207 185.547 8.77226 191.732 5.28585C197.916 1.79944 204.664 0 211.861 0Z" fill="#F1F5F8"/>
<path d="M271.461 2.02441H279.22V71.1903H308.908V78.5005H271.461V2.02441Z" fill="#F1F5F8"/>
<path d="M413.49 1.01221H405.505V80.1875H413.49V1.01221Z" fill="#F1F5F8"/>
<path d="M591.052 14.8452L585.092 20.4684C580.819 16.3072 576.096 13.0458 570.923 10.9089C565.75 8.7721 560.802 7.64745 555.854 7.64745C549.782 7.64745 544.047 9.10949 538.536 12.0336C533.026 14.9577 528.753 19.0064 525.717 24.0673C522.681 29.1282 521.219 34.4141 521.219 40.0373C521.219 45.773 522.793 51.2838 525.942 56.4572C529.09 61.6306 533.364 65.6793 538.874 68.7159C544.384 71.64 550.456 73.2145 556.979 73.2145C564.963 73.2145 571.71 70.9652 577.22 66.579C582.73 62.1929 585.992 56.3447 587.004 49.2594H562.264V41.8368H595.662C595.55 53.6456 592.064 63.0926 584.979 70.0654C577.895 77.0383 568.561 80.5247 556.754 80.5247C542.472 80.5247 531.115 75.6887 522.793 66.0167C516.383 58.594 513.122 50.0467 513.122 40.2623C513.122 33.0645 514.921 26.3166 518.632 20.0186C522.343 13.7206 527.404 8.88456 533.813 5.39815C540.223 1.91174 547.533 0.112305 555.629 0.112305C562.151 0.112305 568.336 1.23695 574.184 3.59872C579.807 5.96048 585.542 9.67182 591.052 14.8452Z" fill="#F1F5F8"/>
<path d="M434.518 10.3468V1.34961H436.317L497.379 72.3149V80.4124H495.579L434.518 10.3468Z" fill="#F1F5F8"/>
<path d="M497.38 10.5717V61.7432L489.395 52.5211V1.34961L497.38 10.5717Z" fill="#F1F5F8"/>
<path d="M434.518 70.7405V21.031L442.84 30.5905V80.4125L434.518 70.7405Z" fill="#F1F5F8"/>
<path d="M382.789 18.2193C378.516 11.8088 372.669 7.31018 365.134 4.72349C359.961 2.92405 351.528 1.91187 339.945 1.91187H324.764L331.398 9.44701H336.909C348.041 9.44701 356.026 10.1218 360.861 11.5838C367.271 13.4957 372.331 17.0946 375.93 22.3805C379.528 27.6663 381.327 33.9643 381.327 41.2746C381.327 48.3599 379.641 54.3205 376.38 59.1565C373.006 63.9925 368.508 67.3664 362.66 69.2783C358.5 70.6279 351.078 71.3027 340.395 71.3027H331.398V20.806L323.977 12.3711V78.6129H348.604C358.275 78.6129 365.809 77.2633 371.094 74.4517C376.492 71.6401 380.765 67.3664 384.139 61.5182C387.512 55.6701 389.199 48.9222 389.199 41.2746C389.087 32.3898 387.063 24.7422 382.789 18.2193Z" fill="#F1F5F8"/>
<path d="M2.47456 111.003C2.92442 111.453 3.48675 111.678 4.16154 111.678C4.83633 111.678 5.39865 111.453 5.84851 111.003C6.29837 110.553 6.5233 109.991 6.5233 109.203C6.5233 108.528 6.29837 107.854 5.84851 107.404C5.39865 106.954 4.83633 106.729 4.16154 106.729C3.48675 106.729 2.92442 106.954 2.47456 107.404C2.0247 107.854 1.79977 108.416 1.79977 109.203C1.79977 109.991 2.0247 110.553 2.47456 111.003ZM6.97316 112.015C6.1859 112.802 5.28618 113.14 4.274 113.14C3.26182 113.14 2.24963 112.802 1.57484 112.015C0.78759 111.228 0.450195 110.328 0.450195 109.316C0.450195 108.191 0.78759 107.291 1.57484 106.617C2.3621 105.829 3.26182 105.492 4.274 105.492C5.28618 105.492 6.29837 105.829 6.97316 106.617C7.76041 107.404 8.09781 108.304 8.09781 109.316C8.09781 110.44 7.64795 111.34 6.97316 112.015Z" fill="#F1F5F8"/>
<path d="M12.9333 113.14C11.8087 113.14 10.909 112.802 10.1217 112.015C9.44693 111.228 8.99707 110.328 8.99707 109.203C8.99707 108.079 9.33446 107.179 10.1217 106.392C10.7965 105.604 11.8087 105.267 12.9333 105.267C13.6081 105.267 14.2829 105.38 14.8452 105.717C15.4076 106.054 15.8574 106.504 16.1948 106.954L14.9577 107.741C14.7328 107.404 14.5078 107.179 14.1705 106.954C13.8331 106.729 13.4957 106.617 13.0458 106.617C12.371 106.617 11.6962 106.842 11.2464 107.291C10.7965 107.741 10.5716 108.304 10.5716 109.091C10.5716 109.766 10.7965 110.44 11.2464 110.89C11.6962 111.34 12.2586 111.565 13.0458 111.565C13.4957 111.565 13.8331 111.453 14.1705 111.228C14.5078 111.003 14.7328 110.778 14.9577 110.44L16.0824 111.453C15.745 112.015 15.2951 112.465 14.7328 112.69C14.1705 113.027 13.6081 113.14 12.9333 113.14Z" fill="#F1F5F8"/>
<path d="M21.4797 105.604H22.9418V113.027H21.4797V109.991H18.6681V113.027H17.2061V105.604H18.6681V108.529H21.4797V105.604Z" fill="#F1F5F8"/>
<path d="M26.4269 111.003C26.8767 111.453 27.4391 111.678 28.1138 111.678C28.7886 111.678 29.351 111.453 29.8008 111.003C30.2507 110.553 30.4756 109.991 30.4756 109.203C30.4756 108.528 30.2507 107.854 29.8008 107.404C29.351 106.954 28.7886 106.729 28.1138 106.729C27.4391 106.729 26.8767 106.954 26.4269 107.404C25.977 107.854 25.7521 108.416 25.7521 109.203C25.7521 109.991 25.977 110.553 26.4269 111.003ZM30.813 112.015C30.0257 112.802 29.126 113.14 28.1138 113.14C27.1017 113.14 26.0895 112.802 25.4147 112.015C24.6274 111.228 24.29 110.328 24.29 109.316C24.29 108.191 24.6274 107.291 25.4147 106.617C26.2019 105.829 27.1017 105.492 28.1138 105.492C29.126 105.492 30.1382 105.829 30.813 106.617C31.6003 107.404 31.9377 108.304 31.9377 109.316C31.9377 110.44 31.6003 111.34 30.813 112.015Z" fill="#F1F5F8"/>
<path d="M36.4351 111.678C36.6601 111.678 36.885 111.565 36.9975 111.453C37.1099 111.34 37.2224 111.115 37.2224 110.778C37.2224 110.553 37.1099 110.328 36.9975 110.103C36.885 109.991 36.6601 109.878 36.4351 109.878H34.7482V111.678H36.4351ZM36.2102 106.954H34.7482V108.641H36.2102C36.4352 108.641 36.6601 108.529 36.7725 108.416C36.885 108.304 36.9975 108.079 36.9975 107.854C36.9975 107.629 36.885 107.404 36.7725 107.291C36.6601 107.067 36.4352 106.954 36.2102 106.954ZM37.7847 109.203C38.4595 109.541 38.7969 110.103 38.7969 110.89C38.7969 111.565 38.572 112.015 38.1221 112.465C37.6723 112.915 37.1099 113.027 36.4351 113.027H33.2861V105.604H36.2102C36.885 105.604 37.3349 105.829 37.7847 106.167C38.2346 106.504 38.4595 107.067 38.4595 107.629C38.4595 108.304 38.2346 108.754 37.7847 109.203Z" fill="#F1F5F8"/>
<path d="M41.8326 110.328H43.857L42.8448 107.291L41.8326 110.328ZM44.7567 113.027L44.3068 111.678H41.3828L40.9329 113.027H39.3584L41.9451 105.604H43.7445L46.3312 113.027H44.7567Z" fill="#F1F5F8"/>
<path d="M51.6164 105.604H53.0785V113.027H51.6164V109.991H48.8048V113.027H47.3428V105.604H48.8048V108.529H51.6164V105.604Z" fill="#F1F5F8"/>
<path d="M56.5646 111.003C57.0144 111.453 57.5768 111.678 58.2515 111.678C58.9263 111.678 59.4887 111.453 59.9385 111.003C60.3884 110.553 60.6133 109.991 60.6133 109.203C60.6133 108.528 60.3884 107.854 59.9385 107.404C59.4887 106.954 58.9263 106.729 58.2515 106.729C57.5768 106.729 57.0144 106.954 56.5646 107.404C56.1147 107.854 55.8898 108.416 55.8898 109.203C55.7773 109.991 56.0022 110.553 56.5646 111.003ZM60.9507 112.015C60.1634 112.802 59.2637 113.14 58.2515 113.14C57.1269 113.14 56.2272 112.802 55.5524 112.015C54.7651 111.228 54.4277 110.328 54.4277 109.316C54.4277 108.191 54.7651 107.291 55.5524 106.617C56.3396 105.829 57.2394 105.492 58.2515 105.492C59.3762 105.492 60.2759 105.829 60.9507 106.617C61.738 107.404 62.0753 108.304 62.0753 109.316C62.0753 110.44 61.738 111.34 60.9507 112.015Z" fill="#F1F5F8"/>
<path d="M69.4967 111.678C69.7216 111.678 69.9465 111.565 70.059 111.453C70.1715 111.34 70.2839 111.115 70.2839 110.778C70.2839 110.553 70.1715 110.328 70.059 110.103C69.9465 109.991 69.7216 109.878 69.4967 109.878H67.8097V111.678H69.4967ZM69.2717 106.954H67.8097V108.641H69.2717C69.4967 108.641 69.7216 108.529 69.8341 108.416C69.9465 108.304 70.059 108.079 70.059 107.854C70.059 107.629 69.9465 107.404 69.8341 107.291C69.7216 107.067 69.4967 106.954 69.2717 106.954ZM70.8463 109.203C71.521 109.541 71.8584 110.103 71.8584 110.89C71.8584 111.565 71.6335 112.015 71.1836 112.465C70.7338 112.915 70.1715 113.027 69.4967 113.027H66.3477V105.604H69.2717C69.9465 105.604 70.3964 105.829 70.8463 106.167C71.2961 106.504 71.521 107.067 71.521 107.629C71.521 108.304 71.2961 108.754 70.8463 109.203Z" fill="#F1F5F8"/>
<path d="M75.5685 113.027V111.903L78.1552 109.316C78.7175 108.754 79.0549 108.191 79.0549 107.854C79.0549 107.516 78.9425 107.292 78.83 107.179C78.6051 106.954 78.3801 106.954 78.1552 106.954C77.5929 106.954 77.143 107.292 76.9181 107.854L75.4561 106.954C75.681 106.392 76.0184 106.054 76.4682 105.829C76.9181 105.605 77.368 105.38 77.9303 105.38C78.6051 105.38 79.1674 105.605 79.6173 106.054C80.0671 106.504 80.292 107.067 80.292 107.741C80.292 108.529 79.8422 109.316 79.0549 110.103L77.5929 111.565H80.4045V113.027H75.5685Z" fill="#F1F5F8"/>
<path d="M83.3278 111.115C83.5527 111.565 84.0026 111.79 84.4524 111.79C84.9023 111.79 85.3521 111.565 85.5771 111.115C85.802 110.665 85.9145 110.103 85.9145 109.316C85.9145 108.528 85.802 107.966 85.5771 107.516C85.3521 107.066 84.9023 106.842 84.4524 106.842C84.0026 106.842 83.5527 107.066 83.3278 107.516C83.1028 107.966 82.9904 108.528 82.9904 109.316C82.8779 110.103 82.9904 110.665 83.3278 111.115ZM84.4524 113.14C83.5527 113.14 82.7654 112.802 82.3156 112.127C81.7533 111.453 81.5283 110.44 81.5283 109.316C81.5283 108.191 81.7533 107.179 82.3156 106.504C82.8779 105.829 83.5527 105.492 84.4524 105.492C85.3521 105.492 86.1394 105.829 86.5892 106.504C87.1516 107.179 87.3765 108.191 87.3765 109.316C87.3765 110.44 87.1516 111.453 86.5892 112.127C86.1394 112.802 85.3521 113.14 84.4524 113.14Z" fill="#F1F5F8"/>
<path d="M90.3004 111.115C90.5253 111.565 90.9752 111.79 91.4251 111.79C91.8749 111.79 92.3248 111.565 92.5497 111.115C92.7746 110.665 92.8871 110.103 92.8871 109.316C92.8871 108.528 92.7746 107.966 92.5497 107.516C92.3248 107.066 91.8749 106.842 91.4251 106.842C90.9752 106.842 90.5253 107.066 90.3004 107.516C90.0755 107.966 89.963 108.528 89.963 109.316C89.8505 110.103 89.963 110.665 90.3004 111.115ZM91.4251 113.14C90.5253 113.14 89.7381 112.802 89.2882 112.127C88.7259 111.453 88.501 110.44 88.501 109.316C88.501 108.191 88.7259 107.179 89.2882 106.504C89.8506 105.829 90.5253 105.492 91.4251 105.492C92.3248 105.492 93.112 105.829 93.5619 106.504C94.1242 107.179 94.3491 108.191 94.3491 109.316C94.3491 110.44 94.1242 111.453 93.5619 112.127C93.112 112.802 92.3248 113.14 91.4251 113.14Z" fill="#F1F5F8"/>
<path d="M98.509 108.641C98.9589 108.753 99.4088 109.091 99.7461 109.428C100.084 109.766 100.196 110.215 100.196 110.778C100.196 111.565 99.9711 112.127 99.4088 112.577C98.8464 113.027 98.2841 113.252 97.4969 113.252C96.9345 113.252 96.3722 113.139 95.9223 112.802C95.4725 112.577 95.1351 112.127 94.9102 111.677L96.1473 111.003C96.3722 111.565 96.7096 111.902 97.4969 111.902C97.8342 111.902 98.1716 111.79 98.3966 111.677C98.6215 111.452 98.734 111.228 98.734 110.89C98.734 110.553 98.6215 110.328 98.3966 110.103C98.1716 109.878 97.9467 109.878 97.4969 109.878H97.1595L96.5971 108.978L98.0592 107.066H95.1351V105.717H99.8586V106.954L98.509 108.641Z" fill="#F1F5F8"/>
<path d="M4.16075 96.3824H39.6958L18.1049 65.0047V20.6936L70.3955 96.3824H95.2475L71.2951 61.8557L95.1351 53.5333V34.1893L60.4996 46.2231L49.8166 30.8154L95.1351 14.9578V5.06094H4.0483V96.3824H4.16075ZM99.2958 100.431H0V1.01221H99.2958V100.431Z" fill="#F1F5F8"/>
</svg>
