<svg width="36" height="30" viewBox="0 0 36 30" fill="none" xmlns="http://www.w3.org/2000/svg">
<path d="M1 1H35V29H1V1Z" stroke="#252D35" stroke-width="2"/>
<path d="M18.103 25C17.662 25 13.8654 24.925 11.296 22.3008C9.61821 20.5858 8.85122 18.2052 9.02379 15.2343L9.11008 13.8191L10.414 14.447C10.4235 14.4564 11.0851 14.7751 11.7945 15.0937C11.8904 12.4789 12.8108 7.32427 18.4481 5.48735L19.9533 5L19.6849 6.51828C19.4164 8.15839 19.426 10.8294 20.2985 11.373C20.7299 11.6354 21.6311 11.3543 22.772 10.5951L23.98 9.7985L24.258 11.1949C24.2772 11.2887 24.6032 13.0412 23.8074 15.075C24.3731 14.9813 24.9675 14.8313 25.3893 14.5783L27 13.6317L26.8466 15.4592C26.5686 18.6739 24.4018 24.8032 18.1605 25H18.1413C18.1317 25 18.1222 25 18.103 25ZM10.9413 16.762C11.0659 18.5145 11.6411 19.9297 12.667 20.9794C14.7091 23.0787 17.94 23.1162 18.103 23.1162C22.5227 22.9756 24.1046 19.0487 24.6511 16.8088C23.4431 17.0806 22.3118 17.0712 22.1296 17.0619L20.356 17.0244L21.3627 15.5998C22.0242 14.6626 22.283 13.6973 22.3693 12.9475C21.1326 13.4724 20.0971 13.4724 19.2535 12.9475C17.7099 11.9822 17.5277 9.55483 17.614 7.85848C13.0217 10.3702 13.6832 16.134 13.7216 16.4058L13.9133 17.9335L12.4369 17.3992C12.0438 17.2587 11.4781 17.0056 10.9413 16.762Z" fill="#252D35"/>
<path d="M7.92578 2.01501L9.9102 1.25391L26.1015 28.5005H24L7.92578 2.01501Z" fill="#252D35"/>
</svg>
