<svg width="26" height="26" viewBox="0 0 26 26" fill="none" xmlns="http://www.w3.org/2000/svg">
<rect width="26" height="26" fill="#B8884B"/>
<rect x="1" y="1" width="24" height="24" stroke="#F1F5F8" stroke-opacity="0.2" stroke-width="2"/>
<mask id="path-3-inside-1_1268_9691" fill="white">
<path d="M16.1818 6L17.4545 7.27273L14.2727 10.4545L13 9.18182L16.1818 6Z"/>
<path d="M9.81818 20L8.54545 18.7273L11.0909 16.1818L12.3636 17.4545L9.81818 20Z"/>
<path d="M16.1818 6L20 9.81818L18.7273 11.0909L14.9091 7.27273L16.1818 6Z"/>
<path d="M9.81818 20L6 16.1818L7.27273 14.9091L11.0909 18.7273L9.81818 20Z"/>
<path d="M12.3636 13.6364L14.2727 15.5455L13 16.8182L11.0909 14.9091L12.3636 13.6364Z"/>
<path d="M13 13L11.0909 11.0909L12.3636 9.81818L14.2727 11.7273L13 13Z"/>
<path d="M18.7273 8.54545L20 9.81818L14.2727 15.5455L13 14.2727L18.7273 8.54545Z"/>
<path d="M7.27273 17.4545L6 16.1818L11.0909 11.0909L12.3636 12.3636L7.27273 17.4545Z"/>
</mask>
<path d="M16.1818 6L17.596 4.58579L16.1818 3.17157L14.7676 4.58579L16.1818 6ZM17.4545 7.27273L18.8688 8.68694L20.283 7.27273L18.8688 5.85851L17.4545 7.27273ZM14.2727 10.4545L12.8585 11.8688L14.2727 13.283L15.6869 11.8688L14.2727 10.4545ZM13 9.18182L11.5858 7.7676L10.1716 9.18182L11.5858 10.596L13 9.18182ZM9.81818 20L8.40397 21.4142L9.81818 22.8284L11.2324 21.4142L9.81818 20ZM8.54545 18.7273L7.13124 17.3131L5.71703 18.7273L7.13124 20.1415L8.54545 18.7273ZM11.0909 16.1818L12.5051 14.7676L11.0909 13.3534L9.6767 14.7676L11.0909 16.1818ZM12.3636 17.4545L13.7778 18.8688L15.1921 17.4545L13.7779 16.0403L12.3636 17.4545ZM20 9.81818L21.4142 11.2324L22.8284 9.81818L21.4142 8.40397L20 9.81818ZM18.7273 11.0909L17.3131 12.5051L18.7273 13.9193L20.1415 12.5051L18.7273 11.0909ZM14.9091 7.27273L13.4949 5.85851L12.0807 7.27273L13.4949 8.68694L14.9091 7.27273ZM6 16.1818L4.58579 14.7676L3.17157 16.1818L4.58579 17.596L6 16.1818ZM7.27273 14.9091L8.68694 13.4949L7.27273 12.0807L5.85851 13.4949L7.27273 14.9091ZM11.0909 18.7273L12.5051 20.1415L13.9193 18.7273L12.5051 17.3131L11.0909 18.7273ZM12.3636 13.6364L13.7778 12.2221L12.3636 10.8079L10.9494 12.2222L12.3636 13.6364ZM14.2727 15.5455L15.6869 16.9597H15.6869L14.2727 15.5455ZM13 16.8182L11.5858 18.2324L13 19.6466L14.4142 18.2324L13 16.8182ZM11.0909 14.9091L9.67669 13.4949L8.26248 14.9091L9.6767 16.3233L11.0909 14.9091ZM13 13L11.5858 14.4142L13 15.8284L14.4142 14.4142L13 13ZM12.3636 9.81818L13.7778 8.40397L12.3636 6.98975L10.9494 8.40397L12.3636 9.81818ZM14.2727 11.7273L15.6869 13.1415L17.1012 11.7273L15.6869 10.3131L14.2727 11.7273ZM18.7273 8.54545L20.1415 7.13124L18.7273 5.71703L17.3131 7.13124L18.7273 8.54545ZM13 14.2727L11.5858 12.8585L10.1716 14.2727L11.5858 15.6869L13 14.2727ZM7.27273 17.4545L5.85851 18.8688L7.27273 20.283L8.68694 18.8688L7.27273 17.4545ZM12.3636 12.3636L13.7778 13.7779L15.1921 12.3636L13.7779 10.9494L12.3636 12.3636ZM14.7676 7.41421L16.0403 8.68694L18.8688 5.85851L17.596 4.58579L14.7676 7.41421ZM16.0403 5.85851L12.8585 9.04033L15.6869 11.8688L18.8688 8.68694L16.0403 5.85851ZM15.6869 9.04033L14.4142 7.7676L11.5858 10.596L12.8585 11.8688L15.6869 9.04033ZM14.4142 10.596L17.596 7.41421L14.7676 4.58579L11.5858 7.7676L14.4142 10.596ZM11.2324 18.5858L9.95967 17.3131L7.13124 20.1415L8.40397 21.4142L11.2324 18.5858ZM9.95967 20.1415L12.5051 17.596L9.6767 14.7676L7.13124 17.3131L9.95967 20.1415ZM9.6767 17.596L10.9494 18.8688L13.7779 16.0403L12.5051 14.7676L9.6767 17.596ZM10.9494 16.0403L8.40397 18.5858L11.2324 21.4142L13.7778 18.8688L10.9494 16.0403ZM14.7676 7.41421L18.5858 11.2324L21.4142 8.40397L17.596 4.58579L14.7676 7.41421ZM18.5858 8.40397L17.3131 9.6767L20.1415 12.5051L21.4142 11.2324L18.5858 8.40397ZM20.1415 9.6767L16.3233 5.85851L13.4949 8.68694L17.3131 12.5051L20.1415 9.6767ZM16.3233 8.68694L17.596 7.41421L14.7676 4.58579L13.4949 5.85851L16.3233 8.68694ZM11.2324 18.5858L7.41421 14.7676L4.58579 17.596L8.40397 21.4142L11.2324 18.5858ZM7.41421 17.596L8.68694 16.3233L5.85851 13.4949L4.58579 14.7676L7.41421 17.596ZM5.85851 16.3233L9.6767 20.1415L12.5051 17.3131L8.68694 13.4949L5.85851 16.3233ZM9.6767 17.3131L8.40397 18.5858L11.2324 21.4142L12.5051 20.1415L9.6767 17.3131ZM10.9494 15.0506L12.8585 16.9597L15.6869 14.1312L13.7778 12.2221L10.9494 15.0506ZM12.8585 14.1312L11.5858 15.404L14.4142 18.2324L15.6869 16.9597L12.8585 14.1312ZM14.4142 15.404L12.5051 13.4949L9.6767 16.3233L11.5858 18.2324L14.4142 15.404ZM12.5051 16.3233L13.7778 15.0506L10.9494 12.2222L9.67669 13.4949L12.5051 16.3233ZM14.4142 11.5858L12.5051 9.6767L9.6767 12.5051L11.5858 14.4142L14.4142 11.5858ZM12.5051 12.5051L13.7778 11.2324L10.9494 8.40397L9.6767 9.67669L12.5051 12.5051ZM10.9494 11.2324L12.8585 13.1415L15.6869 10.3131L13.7778 8.40397L10.9494 11.2324ZM12.8585 10.3131L11.5858 11.5858L14.4142 14.4142L15.6869 13.1415L12.8585 10.3131ZM17.3131 9.95967L18.5858 11.2324L21.4142 8.40397L20.1415 7.13124L17.3131 9.95967ZM18.5858 8.40397L12.8585 14.1312L15.6869 16.9597L21.4142 11.2324L18.5858 8.40397ZM15.6869 14.1312L14.4142 12.8585L11.5858 15.6869L12.8585 16.9597L15.6869 14.1312ZM14.4142 15.6869L20.1415 9.95967L17.3131 7.13124L11.5858 12.8585L14.4142 15.6869ZM8.68694 16.0403L7.41421 14.7676L4.58579 17.596L5.85851 18.8688L8.68694 16.0403ZM7.41421 17.596L12.5051 12.5051L9.6767 9.67669L4.58579 14.7676L7.41421 17.596ZM9.67669 12.5051L10.9494 13.7778L13.7779 10.9494L12.5051 9.6767L9.67669 12.5051ZM10.9494 10.9494L5.85851 16.0403L8.68694 18.8688L13.7778 13.7779L10.9494 10.9494Z" fill="#F1F5F8" mask="url(#path-3-inside-1_1268_9691)"/>
</svg>
