<svg width="81" height="74" viewBox="0 0 81 74" fill="none" xmlns="http://www.w3.org/2000/svg">
<path d="M40.8017 9.96533C38.0536 9.96533 35.8145 12.2045 35.8145 14.9526C35.8145 17.7007 38.0536 19.9399 40.8017 19.9399C43.5498 19.9399 45.789 17.7007 45.789 14.9526C45.789 12.2045 43.5498 9.96533 40.8017 9.96533Z" fill="#B8884B"/>
<path d="M27.7739 2.94263V71.3396H54.237V2.94263H27.7739ZM42.1251 64.9273L40.7001 66.3523L34.8986 60.5508L36.3235 59.1258L40.5984 63.5024L44.8732 59.1258L46.2981 60.5508L42.1251 64.9273ZM46.3999 39.1767V41.2123H35.2039V39.1767H46.3999ZM35.2039 34.6983V32.6627H46.3999V34.6983H35.2039ZM39.9877 45.7925V47.8281H35.1022V45.7925H39.9877ZM40.8019 21.9757C36.9342 21.9757 33.779 18.8205 33.779 14.9528C33.779 11.0851 36.9342 7.9299 40.8019 7.9299C44.6696 7.9299 47.8248 11.0851 47.8248 14.9528C47.8248 18.8205 44.6696 21.9757 40.8019 21.9757Z" fill="#B8884B"/>
<path d="M28.5882 73.7824H0.700195V0.5H28.5882V73.7824ZM2.73582 71.7468H26.5526V2.53562H2.73582V71.7468Z" fill="#01305E"/>
<path d="M80.7001 73.7824H52.812V0.5H80.7001V73.7824ZM54.8476 71.7468H78.6644V2.53562H54.8476V71.7468Z" fill="#01305E"/>
<path d="M20.751 60.5509L16.3744 64.9275L14.9495 66.3524L9.14795 60.5509L10.6747 59.126L14.9495 63.5026L19.2243 59.126L20.751 60.5509Z" fill="#01305E"/>
<path d="M72.4559 60.5509L68.1811 64.9275L66.7561 66.3524L60.9546 60.5509L62.3795 59.126L66.7561 63.5026L71.0309 59.126L72.4559 60.5509Z" fill="#01305E"/>
<path d="M20.5475 32.6628H9.35156V34.6985H20.5475V32.6628Z" fill="#01305E"/>
<path d="M14.9497 21.976C11.082 21.976 7.92676 18.8208 7.92676 14.9531C7.92676 11.0854 11.082 7.93018 14.9497 7.93018C18.8173 7.93018 21.9726 11.0854 21.9726 14.9531C21.9726 18.8208 18.8173 21.976 14.9497 21.976ZM14.9497 9.9658C12.2016 9.9658 9.96238 12.205 9.96238 14.9531C9.96238 17.7012 12.2016 19.9404 14.9497 19.9404C17.6977 19.9404 19.9369 17.7012 19.9369 14.9531C19.9369 12.205 17.6977 9.9658 14.9497 9.9658Z" fill="#01305E"/>
<path d="M66.8579 21.976C62.9902 21.976 59.835 18.8208 59.835 14.9531C59.835 11.0854 62.9902 7.93018 66.8579 7.93018C70.7255 7.93018 73.8808 11.0854 73.8808 14.9531C73.8808 18.8208 70.7255 21.976 66.8579 21.976ZM66.8579 9.9658C64.1098 9.9658 61.8706 12.205 61.8706 14.9531C61.8706 17.7012 64.1098 19.9404 66.8579 19.9404C69.606 19.9404 71.8451 17.7012 71.8451 14.9531C71.8451 12.205 69.606 9.9658 66.8579 9.9658Z" fill="#01305E"/>
<path d="M20.5475 39.1768H9.35156V41.2124H20.5475V39.1768Z" fill="#01305E"/>
<path d="M14.2371 45.7927H9.35156V47.8283H14.2371V45.7927Z" fill="#01305E"/>
<path d="M72.3541 32.6628H61.1582V34.6985H72.3541V32.6628Z" fill="#01305E"/>
<path d="M72.3541 39.1768H61.1582V41.2124H72.3541V39.1768Z" fill="#01305E"/>
<path d="M66.0437 45.7927H61.1582V47.8283H66.0437V45.7927Z" fill="#01305E"/>
</svg>
