<svg width="81" height="68" viewBox="0 0 81 68" fill="none" xmlns="http://www.w3.org/2000/svg">
<path d="M63.4064 2.43023L60.9637 12.5066L58.9281 11.9977L60.5566 5.58545L43.8644 16.476L25.0349 4.26229L6.8161 16.3743L5.59473 14.644L25.0349 1.81954L43.8644 14.0333L59.437 3.85517L52.923 2.73557L53.2283 0.699951L63.4064 2.43023Z" fill="#01305E"/>
<path d="M67.9865 20.0383V41.6159L70.0221 55.5599L65.4419 57.7991L61.2689 55.8653H59.7422V20.0383H67.9865ZM29.2078 20.0383V55.7635H20.9636V20.0383H29.2078ZM48.1391 32.4556V55.6617H39.8949V32.4556H48.1391ZM10.3783 32.9645V55.7635H2.23582V32.9645H10.3783ZM70.0221 18.0027H57.7066V55.7635H50.2765V30.42H37.961V55.6617H31.2435V18.0027H18.9279V55.7635H12.4139V30.9289H0.200195V57.7991H70.0221V18.0027Z" fill="#01305E"/>
<path d="M65.3405 48.8424C67.4779 48.8424 69.3099 50.5727 69.3099 52.8119C69.3099 54.9493 67.5797 56.7814 65.3405 56.7814C63.2031 56.7814 61.371 55.0511 61.371 52.8119C61.371 50.6745 63.1013 48.8424 65.3405 48.8424ZM65.3405 40.7C58.6229 40.7 53.2285 46.0944 53.2285 52.8119C53.2285 59.5295 58.6229 64.9239 65.3405 64.9239C72.058 64.9239 77.4524 59.5295 77.4524 52.8119C77.4524 46.0944 71.9562 40.7 65.3405 40.7Z" fill="#B8884B"/>
<path d="M68.9025 37.6465H61.676L60.6582 44.6694H69.9203L68.9025 37.6465Z" fill="#B8884B"/>
<path d="M68.9026 37.6465H61.6761L61.1672 41.4124C59.8441 41.9213 58.6227 42.6338 57.5031 43.5498L53.9408 42.1249L50.3784 48.3335L53.4319 50.6745C53.3301 51.2852 53.2283 51.9976 53.2283 52.7101C53.2283 53.5243 53.3301 54.2368 53.4319 54.9493L50.4802 57.392L54.1443 63.6007L57.7067 62.1757C58.7245 62.99 59.9458 63.7025 61.1672 64.2114L61.6761 67.9773H68.9026L69.4115 64.2114C70.7346 63.7025 71.956 62.99 73.0756 62.074L76.638 63.4989L80.2003 57.2902L77.1469 54.9493C77.2486 54.3386 77.3504 53.6261 77.3504 52.9137C77.3504 52.0994 77.2486 51.3869 77.1469 50.6745L80.0985 48.2317L76.4344 42.0231L72.8721 43.448C71.8542 42.6338 70.6329 41.9213 69.4115 41.4124L68.9026 37.6465ZM65.3402 56.7813C63.2028 56.7813 61.3708 54.9493 61.3708 52.8119C61.3708 50.6745 63.2028 48.8424 65.3402 48.8424C67.4776 48.8424 69.3097 50.6745 69.3097 52.8119C69.3097 54.9493 67.4776 56.7813 65.3402 56.7813Z" fill="#B8884B"/>
</svg>
