<svg width="32" height="40" viewBox="0 0 32 40" fill="none" xmlns="http://www.w3.org/2000/svg">
<path d="M16.32 26.32C15.86 26.32 11.9 26.24 9.22001 23.44C7.47001 21.61 6.67001 19.07 6.85001 15.9L6.94001 14.39L8.30001 15.06C8.31001 15.07 9.00001 15.41 9.74001 15.75C9.84001 12.96 10.8 7.45998 16.68 5.49998L18.25 4.97998L17.97 6.59998C17.69 8.34998 17.7 11.2 18.61 11.78C19.06 12.06 20 11.76 21.19 10.95L22.45 10.1L22.74 11.59C22.76 11.69 23.1 13.56 22.27 15.73C22.86 15.63 23.48 15.47 23.92 15.2L25.6 14.19L25.44 16.14C25.15 19.57 22.89 26.11 16.38 26.32H16.36C16.35 26.32 16.34 26.32 16.32 26.32ZM8.85001 17.53C8.98001 19.4 9.58001 20.91 10.65 22.03C12.78 24.27 16.15 24.31 16.32 24.31C20.93 24.16 22.58 19.97 23.15 17.58C21.89 17.87 20.71 17.86 20.52 17.85L18.67 17.81L19.72 16.29C20.41 15.29 20.68 14.26 20.77 13.46C19.48 14.02 18.4 14.02 17.52 13.46C15.91 12.43 15.72 9.83998 15.81 8.02998C11.02 10.71 11.71 16.86 11.75 17.15L11.95 18.78L10.41 18.21C10 18.06 9.41001 17.79 8.85001 17.53Z" fill="#B8884B"/>
<path d="M32 16C32 7.16 24.84 0 16 0C7.16 0 0 7.16 0 16C0 23.07 4.58 29.06 10.93 31.18V38H8.81V40H23.19V38H21.07V31.18C27.42 29.06 32 23.07 32 16ZM16 2C23.72 2 30 8.28 30 16C30 19.5 28.71 22.7 26.57 25.16L6.84 5.43C9.3 3.29 12.5 2 16 2ZM12.93 38V31.71C13.93 31.9 14.95 32 16 32C17.05 32 18.07 31.9 19.07 31.71V38H12.93ZM16 30C8.28 30 2 23.72 2 16C2 12.5 3.29 9.3 5.43 6.84L25.16 26.57C22.7 28.71 19.5 30 16 30Z" fill="#01305E"/>
</svg>
