<svg width="34" height="40" viewBox="0 0 34 40" fill="none" xmlns="http://www.w3.org/2000/svg">
<path d="M19.0898 11.5V14.28H6.81982V11.5H19.0898ZM21.0898 9.5H4.81982V16.28H21.0998V9.5H21.0898Z" fill="#B8884B"/>
<path d="M21.0898 19.27H4.81982V21.27H21.0898V19.27Z" fill="#B8884B"/>
<path d="M21.0898 4.5H13.0698V6.5H21.0898V4.5Z" fill="#B8884B"/>
<path d="M10.8198 26.27V29.05H6.81982V26.27H10.8198ZM12.8198 24.27H4.81982V31.05H12.8198V24.27Z" fill="#B8884B"/>
<path d="M33.68 25.06L33.61 24.45L26.2 21.65L25.91 21.54V0H5.08L0 5.54V36H18.87C20.18 37.76 22.1 39.34 24.92 40C34.86 37.65 33.69 25.19 33.68 25.06ZM5.96 2H6.94V4.98H3.23L5.96 2ZM2 34V6.98H8.94V2H23.91V21.54L16.22 24.45L16.16 25.06C16.15 25.14 15.71 29.84 17.67 34H2ZM24.92 37.94C23.54 37.54 22.43 36.79 21.55 36C20.88 35.41 20.34 34.72 19.9 34C18.09 31.02 18.05 27.33 18.11 25.88L23.91 23.68L24.2 23.57L24.92 23.3L25.91 23.68L26.2 23.79L31.73 25.88C31.83 28.14 31.65 36 24.92 37.94Z" fill="#01305E"/>
<path d="M23.97 33.34L20.29 30.1L21.61 28.6L23.87 30.59L28.13 26.27L29.56 27.68L23.97 33.34Z" fill="#01305E"/>
</svg>
