<svg width="163" height="33" viewBox="0 0 163 33" fill="none" xmlns="http://www.w3.org/2000/svg">
<path d="M10.3 1H22V26H15.7V18.2H13.45L7.7 26H0.25L6.5 17.45C4.9 16.7833 3.61667 15.7333 2.65 14.3C1.71667 12.8667 1.25 11.3 1.25 9.6C1.25 7.3 2.08333 5.28333 3.75 3.55C5.38333 1.85 7.56667 1 10.3 1ZM15.7 6.75H10.8C9.86667 6.75 9.08333 7.03333 8.45 7.6C7.85 8.16667 7.55 8.9 7.55 9.8C7.55 10.7 7.85 11.4167 8.45 11.95C9.08333 12.4833 9.86667 12.75 10.8 12.75H15.7V6.75Z" fill="#E73203"/>
<path d="M44.2777 10.45V1H50.7277V26H44.2777V16.5H34.3277V26H27.8777V1H34.3277V10.45H44.2777ZM79.1375 1V19.95H82.4375V32.7H76.1375V26H60.6375V32.7H54.3375V19.95H57.3875C58.8208 17.8167 59.5375 14.8667 59.5375 11.1V1H79.1375ZM64.2875 19.95H72.8375V6.8H65.8375V11.1C65.8375 14.7 65.3208 17.65 64.2875 19.95ZM109.844 16.15H90.9938C91.8271 19.2833 94.1771 20.85 98.0438 20.85C100.51 20.85 102.377 20.0167 103.644 18.35L108.844 21.35C106.377 24.9167 102.744 26.7 97.9438 26.7C93.8104 26.7 90.4938 25.45 87.9938 22.95C85.4938 20.45 84.2437 17.3 84.2437 13.5C84.2437 9.76667 85.4771 6.63333 87.9438 4.1C90.3771 1.56667 93.5438 0.3 97.4438 0.3C101.144 0.3 104.16 1.56667 106.494 4.1C108.894 6.63333 110.094 9.76667 110.094 13.5C110.094 14.2 110.01 15.0833 109.844 16.15ZM90.8938 11.15H103.644C103.277 9.51667 102.527 8.26667 101.394 7.4C100.294 6.53333 98.9771 6.1 97.4438 6.1C95.7104 6.1 94.2771 6.55 93.1438 7.45C92.0104 8.31667 91.2604 9.55 90.8938 11.15ZM127.296 13.35L137.646 26H130.146L121.046 14.65V26H114.596V1H121.046V12L129.646 1H137.346L127.296 13.35ZM150.959 26.7C147.193 26.7 144.043 25.4333 141.509 22.9C139.009 20.3667 137.759 17.2333 137.759 13.5C137.759 9.76667 139.009 6.63333 141.509 4.1C144.043 1.56667 147.193 0.3 150.959 0.3C153.393 0.3 155.609 0.883333 157.609 2.05C159.609 3.21666 161.126 4.78333 162.159 6.75L156.609 10C156.109 8.96667 155.343 8.15 154.309 7.55C153.309 6.95 152.176 6.65 150.909 6.65C148.976 6.65 147.376 7.3 146.109 8.6C144.843 9.86667 144.209 11.5 144.209 13.5C144.209 15.4333 144.843 17.0667 146.109 18.4C147.376 19.6667 148.976 20.3 150.909 20.3C152.209 20.3 153.359 20.0167 154.359 19.45C155.393 18.85 156.159 18.0333 156.659 17L162.259 20.2C161.159 22.2 159.593 23.7833 157.559 24.95C155.559 26.1167 153.359 26.7 150.959 26.7Z" fill="#252D35"/>
</svg>
